<svg width="64" height="54" viewBox="0 0 64 54" fill="none" xmlns="http://www.w3.org/2000/svg">
<path opacity="0.15" d="M35.0006 54.001C51.0168 54.001 64.0006 51.0908 64.0006 47.501C64.0006 43.9111 51.0168 41.001 35.0006 41.001C18.9843 41.001 6.00056 43.9111 6.00056 47.501C6.00056 51.0908 18.9843 54.001 35.0006 54.001Z" fill="#FE5D27"/>
<path d="M17.4795 26.6809C17.4931 26.8275 17.5054 26.9722 17.5211 27.1161C17.5433 27.334 17.5696 27.548 17.5992 27.7611C17.6586 28.1859 17.7294 28.6019 17.8105 29.006C17.898 29.4476 18.0002 29.8861 18.1146 30.3192C18.1425 30.4276 18.1716 30.5365 18.2027 30.6441C18.3249 31.0773 18.4595 31.5036 18.6059 31.9275C18.6799 32.1389 18.7572 32.3493 18.8363 32.5587C19.1808 33.4587 19.5836 34.336 20.0405 35.1869C20.6959 36.4079 21.4623 37.5717 22.3254 38.6643C24.4082 41.2984 26.5161 43.3439 28.5982 44.9165C28.9017 45.1445 29.2037 45.3642 29.505 45.5727C29.7743 45.7604 30.0441 45.9386 30.3122 46.1101C30.4511 46.1993 30.5901 46.2869 30.7296 46.373C31.2994 46.72 31.8647 47.0361 32.4254 47.3212C32.5848 47.402 32.7449 47.4799 32.905 47.5576C33.4631 47.8247 34.0179 48.0628 34.566 48.2726C35.9844 48.8151 37.3655 49.1743 38.6881 49.3902C40.5926 49.6998 42.3787 49.716 43.9895 49.5611C44.1806 49.5427 44.3706 49.5225 44.5562 49.4999C44.7002 49.4812 44.8413 49.4617 44.9821 49.4424C45.2484 49.4035 45.5089 49.3617 45.7628 49.3139C45.872 49.2958 45.98 49.2758 46.0872 49.2525C46.1855 49.2336 46.2824 49.2145 46.3796 49.1938L46.3811 49.1941C46.4603 49.176 46.5394 49.1594 46.6172 49.141C46.9533 49.0616 47.2801 48.9658 47.5985 48.8573C47.6768 48.8295 47.7549 48.8017 47.8319 48.772C47.895 48.7489 47.9564 48.7255 48.0183 48.7005C48.0541 48.6875 48.0887 48.6727 48.1248 48.6581C48.1816 48.6352 48.2367 48.6121 48.2922 48.5873C48.3683 48.5544 48.4445 48.5213 48.5176 48.4877C48.594 48.4531 48.6675 48.4181 48.7412 48.3814C48.8147 48.3462 48.8869 48.3094 48.9593 48.2709C49.0139 48.2428 49.069 48.2133 49.1239 48.1838C49.285 48.0975 49.4426 48.0058 49.5963 47.9101C49.665 47.8677 49.7336 47.8252 49.8011 47.7809C49.8594 47.7425 49.9163 47.704 49.9746 47.6656C49.9837 47.6596 49.9931 47.652 50.0023 47.6461C50.0668 47.6011 50.1313 47.5563 50.1942 47.5111C50.2626 47.4623 50.3295 47.4131 50.3948 47.3637C50.4508 47.3217 50.507 47.2783 50.5618 47.2344C50.5694 47.2281 50.577 47.2218 50.5847 47.2154C50.6468 47.1669 50.7095 47.1152 50.7703 47.0649C50.833 47.0132 50.8941 46.9614 50.9542 46.9076C50.9618 46.9014 50.9712 46.8938 50.9791 46.886C51.2105 46.6818 51.4329 46.4679 51.6431 46.245C51.6996 46.1857 51.7544 46.1262 51.8081 46.0648C51.8508 46.0185 51.892 45.972 51.9331 45.9252C52.0057 45.8409 52.0769 45.7563 52.1465 45.6714C52.1868 45.6213 52.2271 45.5715 52.2659 45.5211C52.315 45.4588 52.3628 45.3961 52.4108 45.332C52.4549 45.2718 52.499 45.2114 52.5432 45.1496C52.5453 45.1469 52.5477 45.1426 52.55 45.1399C52.5965 45.0754 52.6415 45.0106 52.6852 44.9439C54.1877 42.7177 54.8007 39.9036 54.1308 37.0826C53.7376 35.4269 53.077 33.9662 52.4216 32.8067C51.2318 30.698 50.3287 28.4378 49.8163 26.07C49.4043 24.1639 48.8719 22.2547 48.4314 20.7881C47.5677 17.9153 45.9878 15.2999 43.7828 13.2751C40.8266 10.5572 37.6086 9.57249 34.8344 9.35845C33.1828 9.23197 31.5372 9.38358 29.952 9.7742C29.9556 9.77249 29.959 9.77059 29.9626 9.76888C29.8367 9.79924 29.7119 9.83153 29.5868 9.8653C29.5819 9.86582 29.5783 9.86831 29.5734 9.86883C29.4501 9.90143 29.3281 9.93586 29.2069 9.97354C29.093 10.0064 28.9818 10.0416 28.8687 10.0779C28.7794 10.1065 28.6882 10.1363 28.5984 10.1665C28.5018 10.2 28.4065 10.2337 28.3114 10.2674C28.3044 10.2707 28.2977 10.2724 28.2908 10.2757C28.1956 10.3095 28.1002 10.3447 28.0059 10.3818C27.9716 10.3952 27.9374 10.4085 27.9031 10.4218C27.8435 10.444 27.7833 10.4678 27.7247 10.4933C27.0546 10.7634 26.4001 11.0794 25.7668 11.4378C25.765 11.439 25.7653 11.4375 25.7653 11.4375C25.7349 11.4549 25.7061 11.4725 25.6757 11.4898C25.5864 11.5405 25.4971 11.5914 25.4085 11.647C25.3387 11.6876 25.2685 11.7298 25.2 11.7707C25.1044 11.8297 25.0101 11.8889 24.9172 11.9499C24.8102 12.0174 24.7044 12.0869 24.5999 12.1582C24.4903 12.2315 24.3817 12.3067 24.2729 12.3834C24.1491 12.4711 24.027 12.5592 23.9059 12.6491C23.7867 12.7378 23.669 12.8268 23.5524 12.9176C23.4362 13.007 23.3216 13.0966 23.2096 13.1884C23.0979 13.2787 22.9874 13.3708 22.8803 13.462C22.6623 13.6468 22.4553 13.8325 22.2543 14.0194C22.1544 14.1137 22.0545 14.2081 21.9578 14.3016C21.7165 14.5384 21.4857 14.7774 21.267 15.019C21.1795 15.1144 21.0946 15.2119 21.0097 15.3093C20.9667 15.3572 20.9248 15.4068 20.8849 15.4553C20.8031 15.5534 20.7215 15.65 20.6428 15.7489C20.5639 15.8477 20.487 15.9452 20.4112 16.0448C20.3358 16.1427 20.263 16.2427 20.1905 16.3412C20.1177 16.4412 20.0483 16.5403 19.9784 16.6411C19.7713 16.9403 19.5807 17.2431 19.4026 17.547C19.3436 17.6484 19.2863 17.7501 19.2293 17.8503C19.2013 17.9012 19.1734 17.9523 19.1471 18.0035C19.0927 18.1059 19.0386 18.2067 18.9872 18.3096C18.9359 18.4126 18.8848 18.514 18.8368 18.6162C18.787 18.7194 18.7405 18.8218 18.6939 18.9243C18.649 19.027 18.6039 19.1297 18.5605 19.2326C18.5385 19.2848 18.5185 19.336 18.4969 19.3867C18.4549 19.4901 18.4144 19.5938 18.3757 19.6961C17.4809 22.0659 17.2962 24.4706 17.4795 26.6809Z" fill="url(#paint0_linear_2_2295)"/>
<path opacity="0.1" d="M17.4795 26.6807C17.4914 26.827 17.5053 26.972 17.521 27.1159C17.5433 27.3338 17.5696 27.5478 17.5992 27.7609C17.6571 28.1854 17.7279 28.6015 17.809 29.0055C17.8964 29.4471 17.9987 29.8856 18.1146 30.319C18.1424 30.4275 18.1715 30.5363 18.2026 30.6439C18.3234 31.0768 18.458 31.5031 18.6058 31.9273C18.6799 32.1387 18.7557 32.3489 18.8363 32.5585C19.1808 33.4585 19.5835 34.3358 20.0405 35.1867C20.6959 36.4077 21.4622 37.5715 22.3254 38.6641C24.4082 41.2983 26.5161 43.3438 28.5981 44.9163C28.9013 45.1458 29.2037 45.364 29.505 45.5726C29.7743 45.7602 30.0441 45.9384 30.3122 46.1099C30.451 46.1991 30.5901 46.2868 30.7296 46.3728C31.2991 46.7213 31.8647 47.0359 32.4254 47.321C32.5848 47.4018 32.7449 47.4797 32.9049 47.5574C33.4643 47.8265 34.0179 48.0626 34.566 48.2724C35.9855 48.8167 37.3654 49.1741 38.6881 49.39C40.5923 49.7011 42.3783 49.7172 43.9895 49.5609C44.1806 49.5425 44.3705 49.5223 44.5562 49.4997C44.7002 49.481 44.8412 49.4615 44.9821 49.4422C45.2484 49.4033 45.5089 49.3615 45.7627 49.3137C45.872 49.2956 45.9799 49.2757 46.0872 49.2523C46.1855 49.2335 46.2824 49.2143 46.3795 49.1936L46.381 49.1939C46.4603 49.1758 46.5394 49.1593 46.6172 49.1409C46.9532 49.0614 47.2801 48.9656 47.5985 48.8571C47.6767 48.8293 47.7549 48.8015 47.8318 48.7719C47.8949 48.7487 47.9564 48.7253 48.0183 48.7003C48.0541 48.6873 48.0887 48.6725 48.1248 48.6579C48.1815 48.6351 48.2366 48.6119 48.2922 48.5872C48.3683 48.5542 48.4445 48.5211 48.5176 48.4875C48.594 48.453 48.6674 48.4179 48.7412 48.3812C48.8146 48.346 48.8869 48.3092 48.9593 48.2707C49.0139 48.2426 49.0689 48.2131 49.1238 48.1836C49.2849 48.0974 49.4426 48.0056 49.5963 47.9099C49.6649 47.8675 49.7336 47.825 49.8011 47.7807C49.8594 47.7423 49.9163 47.7038 49.9746 47.6654C49.9836 47.6594 49.9931 47.6519 50.0023 47.6459C50.0667 47.601 50.1312 47.5562 50.1942 47.5109C50.2626 47.4621 50.3294 47.4129 50.3948 47.3635C50.4507 47.3215 50.507 47.2781 50.5618 47.2342C50.5694 47.2279 50.577 47.2216 50.5846 47.2152C50.6467 47.1667 50.7095 47.115 50.7702 47.0647C50.833 47.013 50.894 46.9612 50.9541 46.9074C50.9617 46.9012 50.9712 46.8936 50.9791 46.8858C51.2104 46.6816 51.4329 46.4677 51.6431 46.2448C51.6995 46.1855 51.7544 46.1261 51.8081 46.0646C51.8508 46.0184 51.892 45.9718 51.9331 45.925C52.0057 45.8407 52.0768 45.7561 52.1465 45.6712C52.1867 45.6212 52.2271 45.5713 52.2659 45.521C52.315 45.4586 52.3628 45.3959 52.4108 45.3318C52.4548 45.2716 52.4989 45.2112 52.5432 45.1494C52.5453 45.1467 52.5477 45.1425 52.55 45.1397C52.5964 45.0752 52.6415 45.0105 52.6852 44.9437C51.5782 45.7777 50.2774 46.386 48.8365 46.6918C44.806 47.5442 39.0564 47.5224 32.9752 43.4792C30.6693 41.9466 28.3139 39.8349 25.9877 36.9713C25.8723 36.8301 25.7573 36.6877 25.6428 36.5419C23.4919 33.8192 21.967 30.6372 21.2893 27.227C20.3599 22.554 20.7524 16.364 26.918 11.646C26.9195 11.6463 26.9214 11.6452 26.9235 11.6424C26.9652 11.6085 27.01 11.5752 27.0542 11.5434C27.1609 11.4615 27.2689 11.3816 27.383 11.3029C27.4262 11.2694 27.4742 11.2351 27.5205 11.2023C28.2976 10.6529 29.1135 10.1734 29.9627 9.76872C29.8368 9.79908 29.712 9.83137 29.5869 9.86515C29.582 9.86567 29.5784 9.86816 29.5735 9.86868C29.4502 9.90128 29.3282 9.9357 29.207 9.97339C29.0931 10.0063 28.9819 10.0414 28.8688 10.0777C28.7795 10.1064 28.6883 10.1361 28.5985 10.1664C28.5019 10.1998 28.4066 10.2335 28.3115 10.2672C28.3045 10.2706 28.2978 10.2723 28.2909 10.2756C28.1957 10.3093 28.1003 10.3445 28.006 10.3817C27.9717 10.395 27.9375 10.4084 27.9032 10.4217C27.8436 10.4439 27.7834 10.4677 27.7251 10.4917C27.7262 10.4935 27.7247 10.4932 27.7247 10.4932C27.0547 10.7632 26.4002 11.0792 25.7669 11.4377C25.7369 11.4534 25.7065 11.4708 25.6758 11.4897C25.5865 11.5404 25.4972 11.5912 25.4086 11.6469C25.3388 11.6875 25.2686 11.7297 25.2001 11.7706C25.1045 11.8295 25.0102 11.8887 24.9173 11.9498C24.8103 12.0173 24.7045 12.0868 24.6 12.158C24.4904 12.2313 24.3818 12.3065 24.273 12.3832C24.1492 12.471 24.0271 12.5591 23.906 12.6489C23.7868 12.7376 23.6691 12.8267 23.5525 12.9175C23.4363 13.0068 23.3217 13.0965 23.2097 13.1883C23.098 13.2785 22.9875 13.3706 22.8804 13.4619C22.6624 13.6467 22.4554 13.8324 22.2544 14.0192C22.153 14.1132 22.0546 14.208 21.9579 14.3014C21.7166 14.5382 21.4858 14.7773 21.2671 15.0189C21.1796 15.1142 21.0932 15.2114 21.0098 15.3092C20.9668 15.3571 20.9249 15.4066 20.885 15.4552C20.8016 15.5529 20.7216 15.6499 20.6429 15.7488C20.564 15.8475 20.4871 15.9451 20.4113 16.0446C20.3359 16.1425 20.2616 16.2422 20.1906 16.341C20.1178 16.441 20.0469 16.5399 19.9785 16.6409C19.7714 16.9402 19.5808 17.2429 19.4027 17.5469C19.3437 17.6482 19.2849 17.7496 19.2294 17.8501C19.2014 17.901 19.1735 17.9521 19.1472 18.0034C19.0913 18.1054 19.0387 18.2065 18.9873 18.3095C18.9344 18.4121 18.8849 18.5139 18.8369 18.616C18.7871 18.7193 18.7406 18.8217 18.694 18.9241C18.6475 19.0265 18.604 19.1296 18.5606 19.2325C18.5386 19.2847 18.5186 19.3359 18.497 19.3866C18.455 19.4899 18.4145 19.5936 18.3758 19.696C17.4808 22.0657 17.2961 24.4704 17.4795 26.6807Z" fill="#590000"/>
<path opacity="0.1" d="M24.0906 26.1809C24.6722 29.1077 25.9809 31.8396 27.8279 34.1762C35.178 43.4683 42.9014 43.9128 47.7385 42.8899C48.9748 42.6275 50.092 42.1047 51.0423 41.3891C52.3315 39.4775 52.8598 37.0617 52.2837 34.6395C51.946 33.2193 51.3783 31.9665 50.8164 30.9695C49.7951 29.1594 49.0201 27.2201 48.5793 25.1874C48.2257 23.5507 47.7681 21.9109 47.39 20.6514C46.6493 18.187 45.2934 15.9413 43.4005 14.2018C40.8624 11.8698 38.0995 11.0236 35.7173 10.8416C34.3014 10.7337 32.8938 10.8593 31.536 11.1934C31.536 11.1934 31.5346 11.1929 31.534 11.1943C30.8054 11.5419 30.1061 11.9524 29.4401 12.4237C23.6521 16.5182 23.2672 22.0418 24.0906 26.1809Z" fill="#FEFEFE"/>
<path opacity="0.1" d="M27.327 24.8977C27.7922 27.2385 28.8389 29.4235 30.316 31.2922C36.1945 38.7241 42.3715 39.0794 46.2404 38.2614C46.2502 38.2593 46.2601 38.2572 46.27 38.2551C48.1899 37.8387 49.6621 36.2536 49.9752 34.3077C50.1127 33.4534 50.0885 32.5586 49.8754 31.6629C49.6054 30.527 49.1513 29.5251 48.702 28.7276C47.8852 27.2798 47.2653 25.7289 46.9128 24.1033C46.63 22.7942 46.264 21.4828 45.9616 20.4753C45.3692 18.5043 44.2847 16.7082 42.771 15.317C40.7411 13.4519 38.5313 12.7751 36.626 12.6295C35.4936 12.5431 34.3678 12.6436 33.2818 12.9108C33.2818 12.9108 33.2807 12.9104 33.2803 12.9115C32.6976 13.1896 32.1383 13.5177 31.6056 13.8948C26.9763 17.1697 26.6685 21.5874 27.327 24.8977Z" fill="#FEFEFE"/>
<path d="M44.1875 16.9088C44.4235 17.0222 44.7142 17.0913 44.939 16.9569C45.1543 16.8282 45.2378 16.5442 45.198 16.2959C45.1583 16.0476 45.019 15.8276 44.8732 15.6232C44.4387 15.0134 43.9169 14.4666 43.3285 14.0047C43.0863 13.8146 42.8285 13.6364 42.5371 13.5379C42.2456 13.4395 41.9144 13.4278 41.6384 13.5639C40.9473 13.9048 41.1687 14.7351 41.7661 15.0367C41.976 15.1426 42.9297 15.8885 43.2009 16.158C43.4947 16.45 43.8115 16.7282 44.1875 16.9088Z" fill="#FEFEFE"/>
<path d="M39.6574 12.2139C40.1108 11.9767 40.6698 12.1531 40.9062 12.608C41.1426 13.063 40.9669 13.624 40.5135 13.8613C40.0602 14.0986 39.5011 13.9222 39.2647 13.4672C39.0283 13.0124 39.2042 12.4512 39.6574 12.2139Z" fill="#FEFEFE"/>
<path opacity="0.3" d="M20.0405 35.1866C20.6959 36.4077 21.4623 37.5714 22.3254 38.664C24.4082 41.2982 26.5161 43.3437 28.5982 44.9162C28.9014 45.1457 29.2037 45.3639 29.505 45.5725C29.7743 45.7602 30.0441 45.9384 30.3122 46.1099C31.3451 45.4657 32.2589 44.6071 32.9755 43.4796C33.3982 42.8181 33.7521 42.0631 34.0225 41.2037C34.1038 40.949 34.1386 40.6911 34.1346 40.439C34.133 40.3329 34.1237 40.2268 34.1077 40.1222C34.0557 39.7749 33.9247 39.444 33.7345 39.1561C33.7333 39.1544 33.7336 39.1529 33.7336 39.1529C33.7229 39.1364 33.7119 39.1215 33.7009 39.1065C33.6877 39.0863 33.6743 39.0678 33.6608 39.0492C33.6261 39.0039 33.5916 38.9589 33.5536 38.9145C33.5485 38.9087 33.5419 38.9026 33.5371 38.8953C33.4988 38.8526 33.4588 38.811 33.4182 38.7708C33.4077 38.7608 33.3972 38.7507 33.3867 38.7405C33.3446 38.7015 33.3022 38.6627 33.2578 38.6265C33.2538 38.6226 33.2501 38.6186 33.2443 38.6158C33.1381 38.5287 33.0234 38.4525 32.9018 38.386C32.8992 38.3839 32.8976 38.3835 32.8961 38.3832C32.8735 38.3706 32.8514 38.3564 32.8269 38.3449C32.7956 38.329 32.7621 38.3156 32.7291 38.3007C32.7177 38.295 32.7062 38.2895 32.6944 38.2855C32.6439 38.2638 32.5926 38.2452 32.5414 38.2266C32.5236 38.2213 32.5076 38.2147 32.49 38.2094C32.443 38.1933 32.395 38.1817 32.3459 38.1681C32.3248 38.1637 32.3028 38.1558 32.2817 38.1514C32.2169 38.1378 32.1518 38.1257 32.0859 38.1166L32.0692 38.1131C32.0493 38.1105 32.0294 38.1079 32.0095 38.1054C31.8181 38.0794 31.6193 38.0519 31.4098 38.0222C31.1823 37.9886 30.9427 37.9526 30.6932 37.9113C29.3662 37.7008 27.7635 37.4009 25.9879 36.9714C24.3712 36.5801 22.6098 36.0826 20.7851 35.4502C20.7791 35.449 20.7733 35.4462 20.7673 35.445C20.5398 35.3656 20.3112 35.2845 20.0814 35.2015C20.0682 35.197 20.0538 35.1909 20.0405 35.1866Z" fill="#C4634A"/>
<path d="M12.4954 21.419C12.5441 21.4349 12.5943 21.45 12.6465 21.4657C12.7509 21.4969 12.8623 21.5277 12.9777 21.5561C14.6657 21.9875 17.6527 22.2315 21.2796 20.2732C23.2214 19.2249 24.6931 17.457 25.2495 15.3406C25.3023 15.133 25.3488 14.9237 25.3852 14.7097C25.3972 14.636 25.4092 14.5623 25.4204 14.4873C25.4414 14.3382 25.4575 14.1865 25.4694 14.0338C25.4874 13.8038 25.4934 13.5683 25.4879 13.3289C25.4834 13.1698 25.4739 13.0083 25.4581 12.8451C25.435 12.6 25.3957 12.3519 25.3426 12.1013C25.3209 12.0009 25.2965 11.9022 25.2701 11.8028L25.2706 11.8008C25.2533 11.7321 25.2338 11.6627 25.213 11.5941C25.1362 11.3397 25.0431 11.0822 24.9304 10.8221C24.9199 10.8194 24.8789 10.8078 24.8123 10.7918L24.77 10.781C24.7551 10.7772 24.7392 10.7742 24.7223 10.7699C24.6977 10.7647 24.671 10.7589 24.6415 10.7514C24.5244 10.7258 24.3724 10.696 24.1915 10.6688C24.1753 10.6658 24.158 10.6637 24.1405 10.6614C23.7843 10.6074 23.3265 10.56 22.7986 10.5579C20.1541 10.545 17.669 11.9439 16.335 14.2357C16.1074 14.6263 15.9046 15.0528 15.7516 15.5124C15.6755 15.7321 15.6118 15.9606 15.5617 16.1971C15.2812 17.5345 14.6786 18.7939 13.7076 19.7513C13.3605 20.0946 12.963 20.4068 12.5156 20.6409C12.4917 20.6551 12.4649 20.6674 12.4403 20.6803C12.1202 20.8389 12.1546 21.3091 12.4954 21.419Z" fill="#26AE86"/>
<path d="M12.4953 21.4188C12.5441 21.4347 12.5943 21.4498 12.6464 21.4654C12.7501 21.4954 12.8601 21.527 12.9776 21.5559C14.6657 21.9873 17.6527 22.2312 21.2796 20.273C23.2214 19.2247 24.6931 17.4568 25.2494 15.3403C25.3035 15.132 25.3501 14.9227 25.3865 14.7087C25.3984 14.635 25.4105 14.5613 25.4203 14.4871C25.4413 14.3379 25.4574 14.1863 25.4693 14.0336C25.4873 13.8035 25.4947 13.5673 25.4878 13.3287C25.4847 13.1688 25.4738 13.0081 25.458 12.8449C25.4349 12.5998 25.3957 12.3516 25.3425 12.101C25.3208 12.0007 25.2978 11.9011 25.2706 11.8005C25.2533 11.7318 25.2338 11.6625 25.213 11.5939C25.1374 11.3387 25.0443 11.0812 24.9325 10.8225C24.9325 10.8225 24.9325 10.8225 24.9305 10.822C24.9199 10.8193 24.879 10.8077 24.8123 10.7917L24.77 10.7809C24.7552 10.7771 24.7392 10.7741 24.7223 10.7698C24.6977 10.7646 24.6711 10.7588 24.6416 10.7513C24.5238 10.728 24.3717 10.698 24.1915 10.6687C24.1754 10.6657 24.158 10.6636 24.1406 10.6613C24.3978 11.5813 24.4325 12.4704 24.3337 13.2878C24.319 13.4115 24.3002 13.5342 24.2798 13.6542C23.8719 16.049 22.3057 18.0691 20.175 19.2191C16.9708 20.947 14.2668 20.9606 12.5155 20.6407L12.5134 20.6402C12.4891 20.6564 12.4636 20.6681 12.4403 20.6801C12.1202 20.8387 12.1545 21.3089 12.4953 21.4188Z" fill="#1A9F7C"/>
<path d="M14.2884 19.7439C14.1215 19.8958 14.2283 20.1757 14.4537 20.179C15.8588 20.1994 17.7606 19.8635 19.8755 18.4945C21.5257 17.4273 22.6627 15.6919 22.8393 13.7288C22.9033 13.0253 22.851 12.2593 22.5908 11.4758C22.5582 11.3777 22.4674 11.3112 22.3646 11.3065C22.1034 11.2948 21.7911 11.2943 21.4428 11.3206C19.3022 11.48 17.3817 12.7711 16.4489 14.712C16.2138 15.2029 16.0268 15.7524 15.95 16.3471C15.808 17.4473 15.4023 18.5055 14.6777 19.3421C14.5574 19.482 14.4276 19.6173 14.2884 19.7439Z" fill="#31B592"/>
<path d="M16.7823 18.3187C18.4248 17.8414 22.1348 16.317 21.9491 12.315C21.9343 11.996 21.6541 11.7553 21.3389 11.8006C20.0159 11.9905 16.7585 12.9445 16.1007 17.7284C16.0475 18.1148 16.4091 18.4272 16.7823 18.3187Z" fill="#3BC29F"/>
<path opacity="0.3" d="M15.7516 15.5121C15.8679 15.5452 15.9869 15.5769 16.1059 15.6085C16.2663 15.6496 16.4293 15.6892 16.5943 15.7258C16.6336 15.7348 16.6729 15.7437 16.7123 15.7527C16.8539 15.7834 16.9968 15.8099 17.1401 15.8341C18.4723 16.0513 19.8287 15.943 21.0785 15.5117C21.1735 15.4785 21.269 15.4432 21.3638 15.4064C21.812 15.2312 22.2456 15.0163 22.6537 14.7552C22.9248 14.5866 23.1842 14.398 23.4325 14.1908C23.7472 13.9262 24.0526 13.6276 24.3334 13.2877C24.691 12.8592 25.0127 12.3673 25.2699 11.8025L25.2704 11.8004C25.2531 11.7317 25.2336 11.6624 25.2128 11.5938C25.1373 11.3386 25.0442 11.0811 24.9324 10.8224C24.9324 10.8224 24.9324 10.8224 24.9303 10.8219C24.9198 10.8192 24.8788 10.8076 24.8121 10.7916L24.7699 10.7808C24.755 10.777 24.7391 10.774 24.7222 10.7697C24.6976 10.7645 24.6709 10.7587 24.6414 10.7512C24.5243 10.7256 24.3723 10.6958 24.1913 10.6686C24.1752 10.6656 24.1578 10.6635 24.1404 10.6612C23.7842 10.6072 23.3264 10.5598 22.7984 10.5577C20.154 10.5448 17.6688 11.9437 16.3349 14.2355C16.1073 14.6261 15.9044 15.0525 15.7516 15.5121Z" fill="#1A9F7C"/>
<path d="M25.1597 10.0915C25.1597 10.0915 24.6664 9.3322 23.7065 8.50297C21.7019 6.77119 18.907 6.21964 16.4101 7.09548C15.7785 7.31703 15.1384 7.63419 14.5548 8.08597C13.4765 8.92069 12.2046 9.48691 10.8463 9.58491C10.3332 9.62189 9.79842 9.59731 9.28153 9.46743C8.93518 9.38035 8.65793 9.76092 8.84714 10.065C9.71253 11.4567 11.8316 13.9487 16.2747 14.9101C18.6401 15.4219 21.137 14.9031 22.9945 13.3469C23.9034 12.5854 24.7238 11.5344 25.1597 10.0915Z" fill="#26AE86"/>
<path d="M16.2742 14.9106C18.6406 15.4217 21.1366 14.9035 22.9951 13.3478C23.9037 12.5861 24.7234 11.5353 25.1604 10.0926C25.1604 10.0926 24.9914 9.83463 24.6622 9.45532C24.203 10.4561 23.5453 11.2294 22.8337 11.8247C20.9761 13.3817 18.4787 13.901 16.1138 13.389C12.5564 12.6191 10.489 10.8675 9.36248 9.48559C9.33476 9.48103 9.30733 9.474 9.28101 9.46825C8.93527 9.38011 8.65788 9.76076 8.8465 10.065C9.71349 11.4573 11.8321 13.9494 16.2742 14.9106Z" fill="#1A9F7C"/>
<path d="M11.2935 9.95742C11.0682 9.96441 10.9688 10.247 11.1382 10.3962C12.1944 11.3262 13.8594 12.3083 16.3539 12.6425C18.2997 12.9041 20.2866 12.3228 21.6894 10.9434C22.1927 10.4494 22.6478 9.83235 22.956 9.06665C22.9946 8.97082 22.9685 8.86096 22.8932 8.79054C22.7021 8.61161 22.4645 8.40812 22.1825 8.20141C20.4501 6.92966 18.1538 6.6627 16.1896 7.53314C15.6934 7.75378 15.1959 8.05049 14.7532 8.45316C13.9343 9.19824 12.9417 9.73969 11.8494 9.90496C11.6675 9.93286 11.4813 9.95152 11.2935 9.95742Z" fill="#31B592"/>
<path d="M14.1135 10.4944C15.6721 11.2 19.4814 12.454 21.9259 9.28675C22.1208 9.03423 22.0629 8.66865 21.7939 8.49811C20.6641 7.78165 17.5679 6.38805 13.9761 9.60148C13.6861 9.86086 13.7594 10.3341 14.1135 10.4944Z" fill="#3BC29F"/>
<path d="M24.1096 8.93498C24.2379 9.6359 24.5242 10.6889 25.1524 11.7049C25.2755 11.9031 25.4972 12.0201 25.7301 12.0048C26.0723 11.9831 26.5965 11.8825 27.1104 11.5229C27.2746 11.407 27.4384 11.2641 27.5946 11.0878C27.7752 10.8854 27.8029 10.5879 27.6651 10.354C27.395 9.88815 26.9348 9.03983 26.6629 8.23934C26.4433 7.59316 25.7639 7.21591 25.1217 7.37559C25.0639 7.38815 25.0075 7.40703 24.9501 7.4294C24.9347 7.43558 24.9191 7.44172 24.9053 7.44838C24.3283 7.6978 23.9971 8.31636 24.1096 8.93498Z" fill="#BA5433"/>
<path d="M24.6943 8.62499C24.8226 9.32591 25.1084 10.3807 25.7371 11.3949C25.8597 11.5947 26.0814 11.7119 26.3144 11.6964C26.5261 11.6814 26.8061 11.6402 27.1104 11.5229C27.2746 11.407 27.4384 11.2641 27.5946 11.0878C27.7752 10.8854 27.8029 10.5879 27.6651 10.354C27.395 9.88815 26.9348 9.03983 26.6629 8.23934C26.4433 7.59316 25.7639 7.21591 25.1217 7.37559C24.7813 7.68191 24.6077 8.15347 24.6943 8.62499Z" fill="#C5633D"/>
<path d="M24.8499 9.63197C25.4488 9.93725 26.1821 9.69592 26.4846 9.09417C26.745 8.58157 26.6089 7.97022 26.19 7.61399C26.1883 7.61347 26.189 7.61176 26.1873 7.61109C26.1158 7.55182 26.0369 7.4976 25.9504 7.45416C25.4033 7.17641 24.7502 7.35155 24.4089 7.83806C24.3735 7.88526 24.3421 7.93778 24.314 7.99144C24.0115 8.59319 24.251 9.32669 24.8499 9.63197Z" fill="#DD743D"/>
<path d="M24.4088 7.83889C24.2042 8.33432 24.4125 8.91316 24.896 9.15919C25.4039 9.41761 26.0253 9.21236 26.2828 8.70255C26.4667 8.34009 26.4162 7.91952 26.1901 7.61468C26.1883 7.61416 26.189 7.61245 26.1873 7.61178C26.1158 7.55251 26.0369 7.49829 25.9504 7.45485C25.4031 7.17722 24.75 7.35236 24.4088 7.83889Z" fill="#EA8147"/>
<path d="M51.1275 16.5527L21.3025 25.8421L21.5617 26.6753L20.4622 27.0177L21.0226 28.8173L21.9223 28.5371L21.6422 27.6373L22.6084 27.3362L22.3493 26.5033L27.0145 25.05L27.2428 25.7831L28.2092 25.4823L28.5415 26.5486L29.5077 26.2475L29.7984 27.1806L30.6316 26.9211L30.9324 27.8875L32.0657 27.5347L32.3249 28.368L36.6572 27.0186L36.3871 26.1521L37.487 25.8095L37.1862 24.8431L38.1856 24.5319L37.8847 23.5652L38.6844 23.3163L38.3937 22.3831L39.3935 22.0717L39.1028 21.1386L40.2361 20.7858L40.5163 21.6856L41.316 21.4366L41.5754 22.2694L42.5752 21.9581L42.8761 22.9248L43.8427 22.6235L44.154 23.6233L45.1204 23.3225L45.411 24.2553L49.8765 22.8646L49.5962 21.9646L50.7292 21.6119L50.4073 20.5787L51.3071 20.2986L50.7569 18.5323L51.6566 18.2521L51.1275 16.5527Z" fill="black"/>
<path d="M35.0995 24.5471L34.0842 24.8633L33.768 23.8479L34.7833 23.5317L35.0995 24.5471Z" fill="#FAFAFA"/>
<path d="M37.1533 23.9065L36.138 24.2227L35.8218 23.2073L36.8371 22.8911L37.1533 23.9065Z" fill="#FAFAFA"/>
<path d="M34.3942 25.8722L33.3789 26.1885L33.0626 25.1732L34.0779 24.8569L34.3942 25.8722Z" fill="#FAFAFA"/>
<path d="M36.4545 25.2395L35.4392 25.5557L35.123 24.5403L36.1383 24.2241L36.4545 25.2395Z" fill="#FAFAFA"/>
<path d="M35.6957 26.5548L34.6804 26.8711L34.3641 25.8558L35.3794 25.5395L35.6957 26.5548Z" fill="#FAFAFA"/>
<path d="M48.0473 20.5119L47.0319 20.8281L46.7157 19.8128L47.7311 19.4966L48.0473 20.5119Z" fill="#FAFAFA"/>
<path d="M50.0958 19.8663L49.0805 20.1826L48.7642 19.1673L49.7795 18.851L50.0958 19.8663Z" fill="#FAFAFA"/>
<path d="M47.342 21.838L46.3267 22.1543L46.0104 21.139L47.0257 20.8227L47.342 21.838Z" fill="#FAFAFA"/>
<path d="M49.4023 21.2043L48.387 21.5205L48.0708 20.5052L49.0861 20.189L49.4023 21.2043Z" fill="#FAFAFA"/>
<path d="M48.6439 22.5216L47.6286 22.8379L47.3123 21.8226L48.3276 21.5063L48.6439 22.5216Z" fill="#FAFAFA"/>
<path d="M41.396 34.2171C39.0602 34.3046 36.2003 33.995 36.2003 33.995C36.2003 33.995 39.7092 36.1715 42.5634 35.3083C45.4182 34.445 47.0332 31.405 47.0332 31.405C47.0332 31.405 43.7317 34.1296 41.396 34.2171Z" fill="black"/>
<defs>
<linearGradient id="paint0_linear_2_2295" x1="20.0897" y1="13.5795" x2="52.7408" y2="45.1409" gradientUnits="userSpaceOnUse">
<stop stop-color="#EA3B07"/>
<stop offset="0.0846" stop-color="#EB4907"/>
<stop offset="0.5241" stop-color="#F39107"/>
<stop offset="0.8405" stop-color="#F7BD07"/>
<stop offset="1" stop-color="#F9CE07"/>
</linearGradient>
</defs>
</svg>
