<svg width="178" height="36" viewBox="0 0 178 36" fill="none" xmlns="http://www.w3.org/2000/svg">
<path d="M60.6451 14.4038C60.6646 14.5386 60.5866 14.6156 60.4891 14.5963H60.294C59.3579 14.5963 57.4272 14.7119 57.0371 14.7119C56.9786 14.7119 56.9201 14.6734 56.9006 14.5771C56.1205 12.7477 55.1454 10.591 54.3653 8.72314H53.4097C53.3902 8.97347 53.3707 9.18529 53.3707 9.39711C53.3512 9.68596 53.3707 9.93629 53.3512 10.2251L53.2927 12.3433L53.2147 14.1149C53.1952 14.3267 53.1757 14.4615 52.9221 14.6734C51.869 14.6734 50.8159 14.6541 49.7628 14.6156C49.7042 14.4038 49.6652 14.2497 49.6652 14.0764L49.7433 11.7464C49.7628 10.437 49.7628 9.16604 49.7628 7.8566C49.7628 6.56642 49.7433 5.2955 49.7042 4.02458C49.6847 3.23507 49.6262 2.4263 49.5677 1.63679V0.654718C49.7823 0.404384 49.9773 0.346615 50.2308 0.346615C50.8744 0.327359 51.4985 0.288845 52.103 0.288845H54.4628C56.8226 0.288845 59.7285 0.63546 60.3526 3.33135C60.6451 4.58302 60.3721 5.75766 59.7675 6.89378C59.3774 7.66404 58.4608 8.02991 57.7002 8.33801C57.8758 9.03124 58.1683 9.6667 58.4608 10.2829C58.8314 11.0339 59.2214 11.7849 59.6115 12.5359C59.826 12.9403 60.255 13.6335 60.4696 14.0379C60.5476 14.1727 60.6256 14.269 60.6451 14.4038ZM53.2342 3.23507V5.79617C54.0338 5.79617 54.7749 5.79617 55.4965 5.77691C55.633 5.77691 55.789 5.7384 55.945 5.64212C56.4716 5.4303 56.8811 4.81409 56.8031 4.35194C56.6861 3.63946 56.2766 3.25433 55.5745 3.19656C54.9309 3.15805 54.2873 3.13879 53.6437 3.13879C53.5072 3.13879 53.3902 3.1773 53.2342 3.23507Z" fill="white"/>
<path d="M62.6041 1.29018C62.6236 0.90505 62.9357 0.596948 63.3257 0.577692C65.0419 0.423641 66.7191 0.404384 68.4353 0.404384C69.0399 0.404384 69.586 0.385127 70.1515 0.442897C70.3271 0.442897 70.4831 0.462153 70.6586 0.462153C71.3412 0.462153 71.9848 0.404384 72.6674 0.404384C72.9989 0.404384 73.3109 0.63546 73.3304 1.00133C73.3889 1.44423 73.3889 1.86787 73.3889 2.31077C73.3889 3.00399 73.3499 3.40838 72.5698 3.40838C71.3997 3.38912 70.2491 3.33135 69.0789 3.3121C68.1623 3.3121 67.2652 3.33135 66.3291 3.35061V5.66137C66.3291 5.83468 66.4851 5.96948 66.6606 5.96948L70.8926 5.89245C70.9901 5.89245 71.0682 5.93096 71.1267 6.00799C71.2827 6.23907 71.1657 6.50866 71.1852 6.7975C71.2437 7.31742 71.2242 7.8566 71.2437 8.37652C71.2632 8.54983 71.2827 8.74239 71.0682 8.89645C70.7756 8.87719 70.4831 8.87719 70.1905 8.87719C69.0204 8.87719 67.8503 8.95421 66.6216 8.95421C66.4071 8.95421 66.3096 9.0505 66.3096 9.24306C66.2511 10.0711 66.3096 10.6488 66.2901 11.5153H68.8254C70.0735 11.4961 71.3412 11.4768 72.5893 11.4768C73.2719 11.4768 73.4084 11.5731 73.4279 12.2471C73.4474 12.8825 73.3889 13.518 73.3304 14.1534C73.3109 14.4423 73.1354 14.5771 72.8429 14.5963C71.0682 14.7504 69.2544 14.7889 67.4017 14.7889C65.822 14.7889 64.2618 14.7696 62.7796 14.7119C62.6821 14.7119 62.5846 14.7119 62.5261 14.6926C62.3896 14.3267 62.4481 13.7491 62.4676 13.4217C62.4676 11.4768 62.5066 9.53191 62.5261 7.58701C62.5456 6.73973 62.5066 5.87319 62.5651 5.00666C62.6236 3.94756 62.5261 2.94623 62.5846 1.88712C62.5846 1.6753 62.6041 1.502 62.6041 1.29018Z" fill="white"/>
<path d="M79.3946 9.2238L79.3166 12.921C79.2971 13.2869 79.3166 13.6528 79.2971 14.0186C79.2776 14.6156 79.1996 14.7119 78.595 14.7119L75.7282 14.6541C75.4941 14.4423 75.5136 14.2112 75.5136 13.9994C75.4161 10.0518 75.5136 5.02591 75.5136 0.616204L75.7867 0.385127C76.6253 0.327359 77.4054 0.288845 78.244 0.288845C79.4336 0.288845 80.6428 0.308103 81.8324 0.365871C83.7436 0.462153 85.5574 1.13613 86.2399 3.06176C86.4935 3.81276 86.669 4.58302 86.5715 5.41104C86.1619 8.49206 83.5876 9.18529 80.8768 9.18529C80.4282 9.18529 80.0382 9.20455 79.5896 9.14678C79.5311 9.12752 79.4531 9.20455 79.3946 9.2238ZM79.3556 6.1813C79.5896 6.23907 80.0772 6.23907 80.5453 6.23907C81.0133 6.23907 81.4619 6.23907 81.6374 6.1813C82.0469 6.08501 82.3785 5.85394 82.632 5.48807C82.9245 5.04517 82.8075 4.62153 82.749 4.17863C82.6905 3.77425 82.4565 3.50466 82.0859 3.36987C81.8714 3.27358 81.6179 3.19656 81.3839 3.19656C80.7793 3.13879 80.1552 3.15805 79.5506 3.15805C79.4531 3.15805 79.3556 3.19656 79.2191 3.25433C79.3166 4.2364 79.1216 5.19922 79.3556 6.1813Z" fill="white"/>
<path d="M88.7283 0.269589H92.2388C92.2973 0.269589 92.3168 0.327359 92.3753 0.346615C92.3168 1.02059 92.2973 1.63679 92.2778 2.253C92.2583 3.33135 92.2388 4.39045 92.2583 5.46881C92.3168 6.64345 92.3558 8.24173 92.4338 9.41637C92.4923 10.3984 93.0384 11.8234 94.2085 11.8234C95.3201 11.7271 95.3006 10.1866 95.3982 9.39711C95.7102 6.72047 95.5737 2.71515 95.5737 2.40705C95.5932 1.86787 95.5737 1.44423 95.5737 0.905049C95.5737 0.69323 95.6127 0.539178 95.6322 0.288845C95.8857 0.288845 96.1197 0.308103 96.3733 0.308103C97.0559 0.308103 97.6799 0.269589 98.3625 0.269589C98.5965 0.269589 98.8501 0.288845 99.1036 0.288845C99.1231 0.500666 99.1816 0.654718 99.1816 0.866537C99.1816 3.94756 99.3766 9.0505 98.8111 11.6694C98.5185 12.8825 97.953 13.6143 96.8608 14.2497C96.0222 14.7311 95.1056 15.0585 94.1695 15.0585C92.9213 15.0585 92.1022 14.9815 91.0686 14.269C90.386 13.8068 89.7815 13.441 89.3914 12.7285C88.8454 11.7849 88.6113 10.7451 88.6113 9.64744C88.6113 8.33801 88.6308 6.64345 88.6503 5.33402L88.7283 1.44423C88.7478 1.07836 88.7283 0.712486 88.7283 0.269589Z" fill="white"/>
<path d="M101.588 14.5771C101.588 13.2099 101.549 11.9775 101.607 10.7258C101.666 9.49339 101.568 8.24173 101.646 6.99006C101.705 6.21981 101.666 4.89112 101.666 4.12086C101.607 3.11953 101.588 2.1182 101.529 1.11687C101.51 0.828024 101.412 0.558435 101.705 0.269589H107.477C108.823 0.269589 109.837 0.63546 110.91 1.48274C111.358 1.84861 111.573 2.40705 111.67 2.96548C111.826 3.9283 111.748 5.21848 110.383 6.31609C110.247 6.41237 110.325 6.60494 110.422 6.70122C110.91 7.14412 111.982 8.22247 112.353 8.99273C112.918 10.1866 112.821 11.3613 112.08 12.4974C111.046 14.0379 109.506 14.7311 107.633 14.7311L102.894 14.5963H102.699C102.465 14.5963 102.212 14.6156 101.958 14.6156C101.822 14.6156 101.724 14.5963 101.588 14.5771ZM105.079 8.78091C104.981 9.80149 105.02 10.7836 105.098 11.8042C105.254 11.7849 105.43 11.7849 105.586 11.7849C106.034 11.7849 106.444 11.8234 106.853 11.8234C107.575 11.8234 108.179 11.6886 108.569 11.0146C108.959 10.4177 108.803 9.57042 108.199 9.20455C107.887 9.03124 107.555 8.87719 107.185 8.81942C106.639 8.72314 106.073 8.74239 105.508 8.72314C105.352 8.72314 105.215 8.74239 105.079 8.78091ZM105.079 5.79617C105.371 5.89245 105.605 5.91171 105.898 5.91171C106.522 5.91171 107.068 5.83468 107.672 5.62286C108.14 5.41104 108.355 5.00666 108.491 4.52525C108.628 3.90904 108.257 3.36987 107.633 3.23507C107.224 3.15805 106.795 3.11953 106.385 3.11953C105.976 3.11953 105.586 3.13879 105.137 3.19656L105.118 3.21581C105.098 3.21581 105.098 3.23507 105.079 3.23507L105 5.44955C105 5.58435 105.02 5.66137 105.079 5.79617Z" fill="white"/>
<path d="M118.49 11.3035C118.705 11.3227 118.919 11.342 119.134 11.342C119.66 11.342 120.187 11.2842 120.713 11.2842C122.176 11.2842 123.658 11.2457 125.14 11.1687C125.296 11.4768 125.335 14.3075 125.16 14.5578C123.444 14.5771 121.727 14.5963 120.011 14.6541H119.329C118.373 14.6541 117.437 14.6348 116.442 14.6348C115.896 14.6348 115.35 14.6156 114.785 14.6734C114.785 14.2112 114.765 13.7298 114.765 13.2484C114.785 11.419 114.726 9.64744 114.804 7.81809C114.863 6.50865 114.902 5.17997 114.882 3.87053C114.882 2.69589 114.863 1.54051 114.804 0.308103C115.175 0.288845 115.545 0.269589 115.916 0.269589C116.676 0.269589 117.398 0.308103 118.12 0.308103C118.412 0.48141 118.451 0.712486 118.451 1.00133C118.451 3.08102 118.451 5.08368 118.471 7.16337V11.0532C118.471 11.1109 118.471 11.1687 118.49 11.3035Z" fill="white"/>
<path d="M126.859 14.5001C126.801 9.74373 126.84 5.1222 127.015 0.365871H127.269C127.327 0.365871 127.405 0.346615 127.464 0.346615C127.698 0.346615 127.951 0.404384 128.185 0.404384C128.4 0.404384 128.556 0.365871 128.693 0.308103C128.712 0.288845 128.771 0.288845 128.829 0.288845C128.907 0.288845 129.005 0.308103 129.102 0.308103H129.941C130.467 0.308103 130.545 0.308103 130.545 0.924307C130.487 1.92564 130.506 2.92697 130.506 3.9283C130.448 6.7975 130.467 9.58967 130.467 12.4589V14.5001C130.331 14.6541 130.116 14.6734 129.902 14.6734H129.765C129.356 14.6734 128.927 14.6541 128.517 14.6541L127.113 14.5771C127.015 14.5771 126.937 14.5193 126.859 14.5001Z" fill="white"/>
<path d="M143.292 4.25566C143.233 4.39045 143.116 4.46748 142.941 4.46748C142.843 4.46748 142.765 4.44822 142.707 4.39045C141.946 3.79351 140.659 3.04251 139.489 3.04251C139.352 3.04251 139.255 3.04251 139.118 3.06176C137.539 3.06176 136.135 4.64079 135.725 6.02725C135.705 6.10427 135.666 6.1813 135.666 6.25832C135.666 7.08635 135.549 7.89511 135.764 8.68462C136.018 9.70521 136.544 10.6103 137.48 11.1302C138.104 11.4575 138.787 11.6886 139.508 11.6886C139.684 11.6886 139.879 11.7079 140.055 11.6501C140.581 11.5731 141.088 11.3998 141.556 11.1109C141.927 10.8606 142.239 10.5332 142.57 10.2251C142.629 10.1674 142.668 10.0903 142.746 10.0326C142.824 9.9748 142.882 9.95555 142.941 9.95555C143.019 9.95555 143.097 9.99406 143.155 10.0711C143.292 10.2444 143.389 10.3984 143.467 10.6103C143.76 11.2457 143.994 11.8812 144.248 12.5166C144.462 12.9981 144.423 13.1521 143.975 13.4409C142.726 14.2305 141.459 14.7311 139.977 14.7311C139.84 14.7311 139.684 14.7311 139.528 14.7119C138.962 14.6541 138.377 14.6926 137.812 14.5963C136.817 14.423 135.92 14.1149 135.081 13.518C133.17 12.093 132.546 9.95555 132.39 7.70255C132.234 6.08501 132.644 4.66004 133.482 3.27358C133.931 2.5611 134.399 1.90638 135.159 1.46349C135.842 1.07836 136.447 0.558435 137.227 0.385127C138.065 0.231077 139.177 0 140.016 0C140.698 0 141.361 0.115538 142.044 0.269589C142.843 0.48141 143.409 0.943563 144.014 1.46349C144.267 1.6753 144.326 1.98341 144.189 2.27225C143.935 2.71515 143.545 3.69722 143.292 4.25566Z" fill="white"/>
<path d="M158.359 0.0962818C160.153 0.0962818 161.616 0.558434 163.079 1.61754C164.678 2.79217 165.224 4.27491 165.536 6.12353C165.673 6.97081 165.712 7.83734 165.497 8.68462C165.439 8.99273 165.478 9.32009 165.4 9.60893C165.165 10.6873 164.658 11.6501 163.976 12.5166C162.747 14.0957 160.836 14.5771 158.925 14.7889C158.827 14.8082 158.71 14.8082 158.613 14.8082C158.086 14.8082 157.56 14.7696 157.072 14.6348C153.932 14.0764 152.079 12.0545 151.787 8.97347C151.728 8.45355 151.65 7.95288 151.65 7.43296C151.631 6.10427 151.806 4.85261 152.489 3.63945C152.957 2.81143 153.523 2.09895 154.225 1.48274C155.531 0.346615 156.74 0.250333 158.359 0.0962818ZM155.746 5.00666C155.297 5.79617 155.063 6.66271 155.063 7.58701C155.083 7.76032 155.063 7.97214 155.122 8.18396C155.434 9.95555 156.779 11.3613 158.671 11.3613C160.465 11.3613 161.811 10.0518 162.123 8.35727C162.26 7.60627 162.084 6.89378 162.065 6.14278C162.065 6.00799 161.987 5.85394 161.928 5.69989C161.363 4.42897 160.095 3.38912 158.652 3.38912C157.54 3.52392 156.35 4.00533 155.746 5.00666Z" fill="white"/>
<path d="M167.664 1.57902C167.683 1.1939 167.995 0.885793 168.386 0.828024C168.834 0.770255 169.224 0.750999 169.673 0.731742C170.667 0.712486 171.642 0.712486 172.637 0.712486C174.041 0.712486 175.406 0.69323 176.811 0.69323C177.064 0.69323 177.318 0.673974 177.552 0.731742C177.922 0.789512 178 0.866537 178 1.23241C178 1.82936 177.981 2.40705 177.981 3.00399V3.29284C177.981 3.50466 177.805 3.67797 177.591 3.67797H177.22C176.44 3.67797 175.66 3.60094 174.899 3.60094H171.72C171.545 3.60094 171.447 3.69722 171.428 3.87053C171.369 4.39045 171.311 5.37253 171.369 5.91171C171.389 6.08501 171.506 6.23907 171.72 6.21981L176.011 6.16204C176.128 6.25832 176.206 6.45089 176.225 6.73973C176.245 7.4137 176.303 8.02991 176.303 8.70388V8.81942C176.245 9.03124 176.108 9.14678 175.894 9.14678C174.47 9.14678 173.047 9.16603 171.623 9.20455C171.467 9.20455 171.35 9.33934 171.35 9.49339C171.35 10.3022 171.389 13.4217 171.33 14.5386C171.311 14.6541 171.233 14.7119 171.135 14.7119L167.722 14.7311C167.605 14.7311 167.547 14.6926 167.547 14.5963C167.469 13.8453 167.547 13.0943 167.547 12.4011C167.527 11.6501 167.566 10.8799 167.586 10.1289C167.586 9.3586 167.586 8.58834 167.605 7.79883C167.605 6.89378 167.566 5.98873 167.625 5.08368C167.683 4.60227 167.644 4.12086 167.644 3.63945C167.586 2.96548 167.644 2.29151 167.664 1.57902Z" fill="white"/>
<path d="M50.9811 29.6999C51.3217 30.0362 51.6623 30.4174 52.0256 30.7537C53.1155 31.8298 53.9103 32.5249 55.5906 32.5249C56.2945 32.5249 56.9302 32.4352 57.5433 32.0765C58.5651 31.4263 58.4062 30.1932 57.725 29.6551C57.2481 29.2291 56.7259 28.9376 56.022 28.9376C55.5451 28.9376 55.0456 28.9376 54.5688 28.8704C53.9557 28.7583 53.3653 28.5565 52.7522 28.4444C51.8667 28.265 51.2082 27.8391 50.5951 27.2337C49.7777 26.449 49.5506 25.3728 49.3916 24.2967C49.2327 23.1532 49.7095 22.1443 50.3453 21.2475C51.6169 19.4539 53.9103 18.7813 56.022 18.714C56.7713 18.714 57.4979 18.8486 58.1564 19.14C58.7695 19.3866 59.3144 19.6333 59.8821 19.8799C60.359 20.1041 60.745 20.418 61.0629 20.8215C61.2218 21.0009 61.2672 21.1803 61.1537 21.3596L60.0184 23.8258C59.9048 24.0949 59.7005 24.1846 59.3599 24.2742C58.7014 23.2653 57.0211 22.3013 55.7722 22.3013C54.7958 22.3013 53.9103 22.5927 53.5697 23.5792C53.388 24.0949 53.7513 25.0365 54.319 25.2831C54.6596 25.4401 55.0002 25.5073 55.3635 25.5746C56.2718 25.6867 57.2027 25.6643 58.0883 25.8437C59.2463 26.1127 60.3135 26.5611 61.1991 27.4803C62.1528 28.5341 62.6069 29.7672 62.5388 31.1797C62.4707 32.4576 62.0392 33.601 60.972 34.4306C59.5188 35.5292 57.3617 35.9776 55.5451 35.9776C53.7286 35.9776 51.5715 35.4619 50.2318 34.2064C50.0728 34.0494 49.982 33.9149 49.8231 33.758C49.5279 33.4217 49.4598 33.063 49.6187 32.6594C49.9593 31.8523 50.2091 31.0227 50.5043 30.2156C50.5951 29.969 50.6405 29.7672 50.9811 29.6999Z" fill="white"/>
<path d="M68.9692 32.7715H68.7648C68.5151 33.758 68.3334 34.6324 68.0836 35.5292C68.0836 35.5964 68.0155 35.6637 67.9474 35.731C66.8802 35.731 65.8811 35.7758 64.8593 35.7758C64.3825 35.7758 64.0646 35.3722 64.1554 34.9014C64.2462 34.3857 64.3598 33.8477 64.5187 33.332C65.6767 28.9376 66.8121 24.633 68.2426 20.3059C68.3334 19.9696 68.5378 19.566 68.6967 19.2297C68.7648 19.1176 68.833 19.0503 68.9238 19.0279C69.0146 18.9831 69.1281 18.9607 69.2417 18.9607C70.0591 18.9831 70.8766 19.0952 71.694 19.0952C71.9665 19.0952 72.2162 19.0728 72.466 19.0503C72.5568 19.0279 72.6477 19.0952 72.7158 19.0952L73.8057 23.1756L74.6459 26.2921C75.0319 27.6597 75.4633 28.9825 75.8493 30.3501L77.1663 35.5068C77.189 35.6189 77.1436 35.6861 77.0301 35.6861H75.2135C74.5096 35.6861 73.8284 35.6861 73.5332 35.7085C73.4651 35.7085 73.4197 35.6637 73.397 35.5964C73.1018 34.722 72.9656 33.601 72.6704 32.6818C72.4206 32.6594 72.2162 32.6594 71.9665 32.6594C70.9674 32.6594 69.9683 32.7715 68.9692 32.7715ZM71.8756 29.1394C71.694 27.9287 71.1944 25.3952 70.8993 24.3863C70.8993 24.3191 70.8538 24.2742 70.7857 24.2742C70.7176 24.2742 70.6722 24.3191 70.6495 24.3863C70.2862 25.8661 69.7639 27.8391 69.5142 29.2067C69.7866 29.2515 70.1272 29.2739 70.5133 29.2739C71.0582 29.2739 71.6032 29.2291 71.8756 29.1394Z" fill="white"/>
<path d="M79.3562 35.5964C79.3562 34.0046 79.3108 32.5697 79.3789 31.1124C79.4471 29.6775 79.3335 28.2202 79.4244 26.7629C79.4925 25.8661 79.4471 24.3191 79.4471 23.4223C79.379 22.2564 79.3562 21.0906 79.2881 19.9247C79.2654 19.5884 79.1519 19.2745 79.4925 18.9382H86.2136C87.7804 18.9382 88.9612 19.3642 90.21 20.3507C90.7323 20.7767 90.982 21.4269 91.0956 22.0771C91.2772 23.1981 91.1864 24.7002 89.5969 25.9782C89.438 26.0903 89.5288 26.3145 89.6423 26.4266C90.21 26.9422 91.4589 28.1978 91.8903 29.0946C92.5488 30.4846 92.4353 31.8523 91.5724 33.1751C90.369 34.9687 88.5751 35.7758 86.3953 35.7758L80.8776 35.6189H80.6505C80.378 35.6189 80.0829 35.6413 79.7877 35.6413C79.6287 35.6413 79.5152 35.6189 79.3562 35.5964ZM83.4207 28.848C83.3072 30.0362 83.3526 31.1797 83.4434 32.3679C83.6251 32.3455 83.8294 32.3455 84.0111 32.3455C84.5334 32.3455 85.0102 32.3903 85.487 32.3903C86.3272 32.3903 87.0311 32.2334 87.4852 31.4487C87.9394 30.7537 87.7577 29.7672 87.0538 29.3412C86.6905 29.1394 86.3045 28.9601 85.873 28.8928C85.2373 28.7807 84.5788 28.8031 83.9203 28.7807C83.7386 28.7807 83.5797 28.8031 83.4207 28.848ZM83.4207 25.3728C83.7613 25.4849 84.0338 25.5073 84.3744 25.5073C85.101 25.5073 85.7368 25.4177 86.4407 25.171C86.9857 24.9244 87.2354 24.4536 87.3944 23.8931C87.5533 23.1756 87.1219 22.5479 86.3953 22.3909C85.9185 22.3013 85.4189 22.2564 84.9421 22.2564C84.4652 22.2564 84.0111 22.2788 83.4888 22.3461L83.4661 22.3685C83.4434 22.3685 83.4434 22.3909 83.4207 22.3909L83.3299 24.9693C83.3299 25.1262 83.3526 25.2159 83.4207 25.3728Z" fill="white"/>
<path d="M95.0167 30.1708C95.38 30.3277 95.4254 30.5519 95.5163 30.7313C95.9477 31.8747 97.6507 32.6146 98.8087 32.6146C99.9668 32.6146 100.625 32.0316 100.762 30.8882C101.011 28.9825 100.898 27.0768 100.875 25.171L100.784 22.2116C100.784 21.4045 100.784 20.3731 100.807 19.566C100.807 19.4091 100.83 19.2521 100.852 19.0728C100.875 19.0055 100.92 18.9831 100.989 18.9607C101.17 18.9382 101.488 18.9382 101.92 18.9382C102.714 18.9382 103.759 18.9607 104.281 18.9607H104.826C104.871 19.1176 104.894 19.2521 104.894 19.3418L104.962 27.3458C104.962 28.5117 104.985 29.6775 104.985 30.8434C104.985 32.637 103.532 34.5203 102.01 35.4171C101.125 35.7982 100.171 36 99.1947 36C97.469 36 94.994 35.5068 93.7452 34.3185C93.2683 33.8477 93.2456 33.7131 93.5181 33.1751C93.9041 32.3455 94.2447 31.516 94.6761 30.7088C94.7669 30.5295 94.9032 30.3501 95.0167 30.1708Z" fill="white"/>
<path d="M107.96 35.5068C107.892 29.969 107.937 24.5881 108.141 19.0503H108.437C108.505 19.0503 108.595 19.0279 108.664 19.0279C108.936 19.0279 109.231 19.0952 109.504 19.0952C109.754 19.0952 109.935 19.0503 110.094 18.9831C110.117 18.9606 110.185 18.9607 110.253 18.9607C110.344 18.9607 110.457 18.9831 110.571 18.9831H111.547C112.16 18.9831 112.251 18.9831 112.251 19.7005C112.183 20.8664 112.206 22.0322 112.206 23.1981C112.138 26.5387 112.16 29.7896 112.16 33.1302V35.5068C112.001 35.6861 111.752 35.7085 111.502 35.7085H111.343C110.866 35.7085 110.367 35.6861 109.89 35.6861L108.255 35.5964C108.141 35.5964 108.051 35.5292 107.96 35.5068Z" fill="white"/>
<path d="M129.578 29.6551H129.737C129.828 29.1843 130.645 24.2294 130.918 22.2116C130.986 21.6735 131.168 20.2834 131.281 19.7454C131.281 19.6108 131.304 19.4539 131.349 19.2745C131.372 19.1176 131.486 19.0055 131.644 18.9831H132.189C133.597 18.9831 134.278 18.9607 135.845 18.9607C135.936 18.9607 136.209 18.9831 136.095 19.4539C135.754 20.5973 135.436 21.965 135.141 23.1308C134.755 24.6554 134.437 26.1127 134.074 27.6373L133.347 30.3725C132.961 31.8298 132.621 33.2872 132.258 34.7445C132.189 34.9238 132.144 35.2826 132.076 35.5292C132.053 35.6189 131.985 35.731 131.894 35.731C131.281 35.731 128.307 35.7085 127.921 35.7085C127.285 35.7085 127.126 35.7085 126.944 34.9911C126.558 33.3096 126.127 31.6729 125.695 29.9914C125.536 29.5206 125.423 29.0497 125.264 28.5341C125.241 28.4668 125.196 28.4444 125.128 28.4444C125.06 28.4444 125.014 28.4668 124.991 28.5341C124.446 30.2156 123.266 34.3857 122.902 35.4395C122.834 35.6413 122.721 35.7085 122.516 35.6861H121.79C120.882 35.6861 120.041 35.7085 119.156 35.7085H118.475C118.27 35.7085 118.157 35.6189 118.111 35.4619C117.362 33.2647 114.342 21.2924 114.07 19.2073C114.047 19.0503 114.138 18.9607 114.297 18.9607C114.728 18.9607 115.545 18.9831 116.159 18.9831H117.793C117.907 18.9831 118.02 19.0055 118.157 19.0503C118.27 19.0728 118.338 19.1624 118.361 19.2745C118.565 20.5076 118.724 21.6511 118.974 22.8169L119.746 26.3369L120.496 30.0138C120.518 30.0811 120.564 30.1259 120.632 30.1259C120.7 30.1259 120.745 30.1035 120.768 30.0362C121.199 28.5565 122.244 24.6554 122.607 22.7945L123.288 19.4987C123.379 19.0503 123.447 19.0055 123.924 18.9382C124.265 18.871 124.628 18.8934 124.969 18.8934C125.536 18.8934 126.081 18.9158 126.649 18.9831C127.012 19.0503 127.262 19.1624 127.353 19.5212C127.444 19.8126 127.512 20.1041 127.58 20.3955L128.466 24.9468C128.624 25.6867 128.783 26.4266 128.965 27.1664L129.578 29.6551Z" fill="white"/>
<path d="M140.77 32.7715H140.566C140.316 33.758 140.134 34.6324 139.885 35.5292C139.885 35.5964 139.816 35.6637 139.748 35.731C138.681 35.731 137.682 35.7758 136.66 35.7758C136.183 35.7758 135.865 35.3722 135.956 34.9014C136.047 34.3857 136.161 33.8477 136.32 33.332C137.478 28.9376 138.613 24.633 140.043 20.3059C140.134 19.9696 140.339 19.566 140.498 19.2297C140.566 19.1176 140.634 19.0503 140.725 19.0279C140.815 18.9831 140.929 18.9607 141.043 18.9607C141.86 18.9831 142.677 19.0952 143.495 19.0952C143.767 19.0952 144.017 19.0728 144.267 19.0503C144.358 19.0279 144.449 19.0952 144.517 19.0952L145.607 23.1756L146.447 26.2921C146.833 27.6597 147.264 28.9825 147.65 30.3501L148.967 35.5068C148.99 35.6189 148.944 35.6861 148.831 35.6861H147.014C146.31 35.6861 145.629 35.6861 145.334 35.7085C145.266 35.7085 145.221 35.6637 145.198 35.5964C144.903 34.722 144.766 33.601 144.471 32.6818C144.221 32.6594 144.017 32.6594 143.767 32.6594C142.768 32.6594 141.769 32.7715 140.77 32.7715ZM143.677 29.1394C143.495 27.9287 142.995 25.3952 142.7 24.3863C142.7 24.3191 142.655 24.2742 142.587 24.2742C142.518 24.2742 142.473 24.3191 142.45 24.3863C142.087 25.8661 141.565 27.8391 141.315 29.2067C141.588 29.2515 141.928 29.2739 142.314 29.2739C142.859 29.2739 143.404 29.2291 143.677 29.1394Z" fill="white"/>
<path d="M155.115 31.785C155.365 31.8074 155.615 31.8298 155.864 31.8298C156.477 31.8298 157.09 31.7626 157.704 31.7626C159.407 31.7626 161.132 31.7177 162.858 31.6281C163.04 31.9868 163.085 35.2826 162.881 35.574C160.882 35.5964 158.884 35.6189 156.886 35.6861H156.091C154.979 35.6861 153.889 35.6637 152.731 35.6637C152.095 35.6637 151.459 35.6413 150.801 35.7085C150.801 35.1705 150.778 34.61 150.778 34.0494C150.801 31.9195 150.733 29.8569 150.823 27.7269C150.892 26.2024 150.937 24.6554 150.914 23.1308C150.914 21.7632 150.892 20.418 150.823 18.9831C151.255 18.9606 151.686 18.9382 152.118 18.9382C153.003 18.9382 153.843 18.9831 154.684 18.9831C155.024 19.1849 155.07 19.4539 155.07 19.7902C155.07 22.2116 155.07 24.5433 155.092 26.9647V31.4935C155.092 31.5608 155.092 31.6281 155.115 31.785Z" fill="white"/>
<path d="M169.686 32.7715H169.481C169.231 33.758 169.05 34.6324 168.8 35.5292C168.8 35.5964 168.732 35.6637 168.664 35.731C167.597 35.731 166.597 35.7758 165.576 35.7758C165.099 35.7758 164.781 35.3722 164.872 34.9014C164.963 34.3857 165.076 33.8477 165.235 33.332C166.393 28.9376 167.528 24.633 168.959 20.3059C169.05 19.9696 169.254 19.566 169.413 19.2297C169.481 19.1176 169.549 19.0503 169.64 19.0279C169.731 18.9831 169.844 18.9607 169.958 18.9607C170.775 18.9831 171.593 19.0952 172.41 19.0952C172.683 19.0952 172.933 19.0728 173.182 19.0503C173.273 19.0279 173.364 19.0952 173.432 19.0952L174.522 23.1756L175.362 26.2921C175.748 27.6597 176.18 28.9825 176.566 30.3501L177.883 35.5068C177.905 35.6189 177.86 35.6861 177.746 35.6861H175.93C175.226 35.6861 174.545 35.6861 174.25 35.7085C174.181 35.7085 174.136 35.6637 174.113 35.5964C173.818 34.722 173.682 33.601 173.387 32.6818C173.137 32.6594 172.933 32.6594 172.683 32.6594C171.684 32.6594 170.685 32.7715 169.686 32.7715ZM172.592 29.1394C172.41 27.9287 171.911 25.3952 171.616 24.3863C171.616 24.3191 171.57 24.2742 171.502 24.2742C171.434 24.2742 171.389 24.3191 171.366 24.3863C171.003 25.8661 170.48 27.8391 170.23 29.2067C170.503 29.2515 170.844 29.2739 171.23 29.2739C171.775 29.2739 172.32 29.2291 172.592 29.1394Z" fill="white"/>
<path d="M27.801 0.344299C28.5124 0.344378 29.172 0.71245 29.5393 1.31403L42.3381 22.2759C42.7268 22.9126 42.727 23.7097 42.3381 24.3463L35.9172 34.855C35.5498 35.4561 34.8909 35.8237 34.1799 35.8238H8.39575C7.68218 35.8237 7.02113 35.4537 6.65454 34.8492L0.28833 24.3453C-0.0972722 23.7091 -0.0959551 22.9145 0.292236 22.2798L13.1184 1.31207C13.486 0.7115 14.145 0.344311 14.8557 0.344299H27.801ZM29.6418 18.8804C27.9146 18.8054 26.0058 19.1638 24.8704 20.4048C24.3027 21.0255 23.8584 21.7381 23.926 22.5865C23.9973 23.3855 24.1248 24.1881 24.7493 24.8121C25.2168 25.2923 25.7316 25.6439 26.4446 25.8277C26.9386 25.9461 27.4095 26.1293 27.9036 26.2476C28.2889 26.325 28.6972 26.3543 29.0862 26.3824C29.6605 26.424 30.0718 26.6687 30.4377 27.0093C30.9642 27.4444 31.0264 28.359 30.1575 28.7759C29.6378 29.0029 29.1136 29.0312 28.5393 28.9898C27.168 28.8908 26.5568 28.3337 25.7258 27.48C25.4476 27.2119 25.1896 26.9119 24.9299 26.6451C24.6485 26.6744 24.6004 26.8202 24.5129 26.9957C24.2283 27.5702 23.9791 28.164 23.6575 28.7359C23.5059 29.0225 23.5415 29.2902 23.7639 29.5543C23.885 29.6787 23.9523 29.7833 24.0735 29.9078C25.0989 30.9079 26.832 31.414 28.3147 31.5211C29.7973 31.628 31.5826 31.4259 32.8284 30.7056C33.7444 30.1598 34.1594 29.3453 34.2844 28.4117C34.4166 27.3796 34.1126 26.4479 33.3918 25.6187C32.7191 24.8922 31.872 24.4996 30.9417 24.2339C30.2287 24.0502 29.4669 24.0113 28.7317 23.8755C28.4389 23.8048 28.1641 23.7353 27.8948 23.6002C27.445 23.3856 27.1999 22.6738 27.3762 22.3062C27.7079 21.6025 28.4465 21.4401 29.2434 21.4976C30.2629 21.5715 31.838 22.3788 32.3206 23.1578C32.6032 23.1121 32.7748 23.0574 32.8821 22.8668L33.9436 21.1246C34.0457 20.9998 34.0183 20.8649 33.8987 20.7242C33.6612 20.4094 33.3625 20.156 32.9856 19.9634C32.5358 19.7491 32.1042 19.5359 31.6174 19.3189C31.0959 19.0663 30.2535 18.9246 29.6418 18.8804ZM10.1877 19.3306C10.1635 19.3307 10.1396 19.3404 10.1223 19.357C9.62357 19.8402 9.20704 20.4186 8.87231 21.0914C8.30812 22.2114 8.02567 23.5651 8.02563 25.1529C8.02563 26.7407 8.30817 28.1017 8.87231 29.2359C9.21425 29.9146 9.64143 30.4979 10.1545 30.9839C10.1717 31.0001 10.1951 31.0092 10.219 31.0093H13.4299C13.5426 31.0086 13.5945 30.7338 13.4983 30.6763C13.3474 30.5874 13.0757 30.4833 12.9377 30.3638C12.3981 29.896 11.9811 29.2222 11.6868 28.3433C11.4047 27.4643 11.2639 26.4005 11.2639 25.1529C11.2639 23.8912 11.4047 22.8209 11.6868 21.942C11.9811 21.0631 12.3982 20.3966 12.9377 19.9429C13.0902 19.8109 13.3782 19.6969 13.5461 19.6021C13.6403 19.5478 13.598 19.3312 13.4885 19.3306H10.1877ZM15.677 19.3306C15.5671 19.3312 15.5245 19.5517 15.6194 19.606C15.7843 19.7 15.9403 19.8127 16.0872 19.9429C16.6265 20.3966 17.0376 21.0631 17.3196 21.942C17.6016 22.8209 17.7434 23.8912 17.7434 25.1529C17.7434 26.4005 17.6016 27.4643 17.3196 28.3433C17.0376 29.2221 16.6265 29.896 16.0872 30.3638C15.9555 30.4806 15.8163 30.5829 15.6702 30.6705C15.5736 30.7283 15.6272 31.0093 15.7405 31.0093H18.7942C18.818 31.0091 18.8415 31.0002 18.8586 30.9839C19.3669 30.4979 19.7923 29.9145 20.134 29.2359C20.7101 28.1018 20.9983 26.7405 20.9983 25.1529C20.9983 23.5652 20.7102 22.2113 20.134 21.0914C19.7995 20.4186 19.385 19.8402 18.8909 19.357C18.8736 19.3401 18.849 19.3307 18.8245 19.3306H15.677ZM19.5969 5.35211C19.0914 5.35211 18.5687 5.38417 18.0305 5.39996C17.8189 5.40003 17.6559 5.44725 17.4768 5.65192V6.45758C17.5257 7.10495 17.5738 7.76821 17.5901 8.41559C17.6227 9.45794 17.6399 10.501 17.6399 11.5591C17.6399 12.6328 17.6396 13.6749 17.6233 14.7486L17.5579 16.6597C17.5579 16.8019 17.591 16.9284 17.6399 17.1021C18.5205 17.1337 19.4019 17.15 20.2825 17.15C20.494 16.9765 20.5103 16.8654 20.5266 16.692L20.592 15.2388L20.6409 13.5015C20.6572 13.2646 20.6412 13.0587 20.6575 12.8218C20.6575 12.6483 20.6734 12.4742 20.6897 12.2691H21.4895C22.142 13.801 22.9894 15.5706 23.6418 17.0709C23.6582 17.1496 23.7073 17.1811 23.7561 17.1812C24.0834 17.1811 25.6981 17.0865 26.4807 17.0865H26.6438C26.725 17.1018 26.7899 17.0385 26.7737 16.9283C26.7573 16.818 26.6923 16.7388 26.6272 16.6285C26.4479 16.297 26.0889 15.7288 25.9094 15.397C25.5832 14.7812 25.2574 14.1643 24.9475 13.5484C24.7028 13.0431 24.3287 12.5221 24.1819 11.9537C24.818 11.701 25.5852 11.4007 25.9114 10.7691C26.4169 9.83743 26.6453 8.87364 26.4006 7.84723C25.8786 5.63653 23.5764 5.35215 21.6028 5.35211H19.5969ZM20.886 7.68903C21.4239 7.68904 21.8665 7.70531 22.4045 7.73688C22.9912 7.78447 23.334 8.10027 23.4319 8.68414C23.4971 9.06306 23.1543 9.56888 22.7141 9.74274C22.5839 9.82154 22.4531 9.85297 22.3391 9.85309C21.7358 9.86888 21.2117 9.86871 20.5432 9.86871V7.76813C20.6734 7.72088 20.772 7.68903 20.886 7.68903Z" fill="white"/>
</svg>
