<svg width="178" height="36" viewBox="0 0 178 36" fill="none" xmlns="http://www.w3.org/2000/svg">
<g clip-path="url(#clip0_344_271)">
<path d="M60.5974 14.3755C60.6167 14.51 60.5385 14.5869 60.4413 14.5677H60.2461C59.3097 14.5677 57.3779 14.683 56.9879 14.683C56.9295 14.683 56.8706 14.6446 56.8512 14.5485C56.0709 12.7227 55.0953 10.5702 54.3149 8.70596H53.3587C53.3394 8.9558 53.32 9.16718 53.32 9.37861C53.3002 9.66686 53.32 9.9167 53.3002 10.205L53.2418 12.3191L53.164 14.0872C53.1442 14.2986 53.1248 14.4331 52.8712 14.6446C51.8178 14.6446 50.764 14.6253 49.7106 14.5869C49.6521 14.3755 49.613 14.2218 49.613 14.0488L49.6908 11.7233C49.7106 10.4164 49.7106 9.14795 49.7106 7.84107C49.7106 6.55341 49.6908 5.28499 49.6521 4.01654C49.6323 3.22857 49.5739 2.42138 49.5154 1.63341V0.653246C49.7299 0.403399 49.9251 0.345743 50.1788 0.345743C50.8224 0.326524 51.4467 0.288086 52.0517 0.288086H54.4125C56.7734 0.288086 59.6803 0.634026 60.3046 3.32466C60.5974 4.57388 60.3239 5.74625 59.7194 6.88017C59.329 7.64891 58.4119 8.01404 57.6514 8.32156C57.8268 9.01344 58.1196 9.64768 58.4119 10.2627C58.7826 11.0122 59.173 11.7617 59.5634 12.5113C59.7779 12.9149 60.207 13.6067 60.4215 14.0103C60.4998 14.1449 60.5776 14.241 60.5974 14.3755ZM53.1833 3.22857V5.78467C53.9834 5.78467 54.7247 5.78467 55.4466 5.76544C55.5829 5.76544 55.7394 5.72702 55.8954 5.63092C56.4221 5.4195 56.8319 4.80453 56.7536 4.34327C56.6367 3.63217 56.2269 3.24779 55.5244 3.19013C54.8808 3.15169 54.2367 3.13247 53.593 3.13247C53.4563 3.13247 53.3394 3.17091 53.1833 3.22857Z" fill="#1E1E1E"/>
<path d="M62.5571 1.28753C62.5765 0.903156 62.8886 0.595653 63.279 0.576437C64.9958 0.422684 66.6739 0.403466 68.3907 0.403466C68.9952 0.403466 69.5417 0.384246 70.1075 0.441903C70.2829 0.441903 70.439 0.461123 70.6148 0.461123C71.2976 0.461123 71.9417 0.403466 72.6244 0.403466C72.9559 0.403466 73.2681 0.634092 73.2878 0.999251C73.3463 1.44128 73.3463 1.8641 73.3463 2.30613C73.3463 2.99801 73.3072 3.4016 72.5268 3.4016C71.3561 3.38238 70.2051 3.32473 69.0343 3.30551C68.1172 3.30551 67.2199 3.32473 66.2835 3.34395V5.65022C66.2835 5.82319 66.4396 5.9577 66.615 5.9577L70.8487 5.88083C70.9463 5.88083 71.0246 5.91929 71.083 5.99616C71.2391 6.22677 71.1222 6.49584 71.1415 6.78413C71.2 7.30304 71.1807 7.84114 71.2 8.36004C71.2198 8.53301 71.2391 8.72521 71.0246 8.87895C70.7318 8.85977 70.439 8.85977 70.1466 8.85977C68.9759 8.85977 67.8051 8.93664 66.5763 8.93664C66.3613 8.93664 66.2641 9.03274 66.2641 9.22489C66.2052 10.0513 66.2642 10.6279 66.2444 11.4927H68.7807C70.0297 11.4735 71.2976 11.4543 72.5462 11.4543C73.2289 11.4543 73.3657 11.5504 73.385 12.2231C73.4048 12.8573 73.3463 13.4915 73.2878 14.1257C73.2681 14.414 73.0926 14.5485 72.7998 14.5678C71.0246 14.7215 69.2102 14.76 67.3567 14.76C65.7762 14.76 64.2154 14.7407 62.7325 14.683C62.6349 14.683 62.5373 14.683 62.4789 14.6639C62.3426 14.2987 62.401 13.7221 62.4204 13.3954C62.4204 11.4543 62.4595 9.51319 62.4789 7.57211C62.4986 6.72645 62.4595 5.8616 62.518 4.99675C62.5765 3.93973 62.4789 2.94035 62.5373 1.88331C62.5373 1.67191 62.5571 1.49894 62.5571 1.28753Z" fill="#1E1E1E"/>
<path d="M79.3545 9.20564L79.2762 12.8956C79.2569 13.2608 79.2762 13.626 79.2569 13.9911C79.2371 14.5869 79.1593 14.683 78.5543 14.683L75.6865 14.6253C75.4522 14.414 75.4716 14.1833 75.4716 13.9719C75.3744 10.032 75.4716 5.01592 75.4716 0.614806L75.745 0.38418C76.5838 0.326524 77.3642 0.288086 78.203 0.288086C79.3931 0.288086 80.603 0.307305 81.7931 0.364961C83.7051 0.461057 85.5195 1.13371 86.2023 3.0556C86.456 3.80514 86.6318 4.57388 86.5342 5.40031C86.1245 8.47531 83.5491 9.16718 80.8369 9.16718C80.3885 9.16718 79.9981 9.18641 79.5492 9.12877C79.4907 9.10954 79.4129 9.18641 79.3545 9.20564ZM79.3153 6.16906C79.5492 6.2267 80.0372 6.2267 80.5054 6.2267C80.9737 6.2267 81.4225 6.2267 81.5979 6.16906C82.0077 6.07296 82.3392 5.84235 82.5929 5.47718C82.8857 5.03515 82.7687 4.61234 82.7102 4.17029C82.6513 3.7667 82.4174 3.49763 82.0468 3.3631C81.8323 3.26701 81.5786 3.19013 81.3443 3.19013C80.7393 3.13247 80.115 3.15169 79.5105 3.15169C79.4129 3.15169 79.3153 3.19013 79.1786 3.24779C79.2762 4.22795 79.081 5.18889 79.3153 6.16906Z" fill="#1E1E1E"/>
<path d="M88.6917 0.269531H92.2036C92.262 0.269531 92.2818 0.327188 92.3403 0.346407C92.2818 1.01907 92.2621 1.63407 92.2427 2.24907C92.2234 3.32533 92.2036 4.38235 92.2233 5.45862C92.2818 6.63095 92.3205 8.22613 92.3988 9.39846C92.4572 10.3786 93.0037 11.8008 94.174 11.8008C95.2863 11.7047 95.2666 10.1672 95.3642 9.37927C95.6763 6.70786 95.54 2.71032 95.54 2.40282C95.5593 1.8647 95.54 1.44188 95.54 0.903754C95.54 0.692345 95.5791 0.538596 95.5985 0.28875C95.8521 0.28875 96.086 0.30797 96.3397 0.30797C97.0225 0.30797 97.6472 0.269531 98.33 0.269531C98.5638 0.269531 98.8175 0.28875 99.0712 0.28875C99.091 0.500156 99.1494 0.65391 99.1494 0.865315C99.1494 3.94033 99.3442 9.03333 98.7784 11.6471C98.486 12.8579 97.9202 13.5882 96.8277 14.2224C95.9884 14.7029 95.0718 15.0296 94.1353 15.0296C92.8863 15.0296 92.0673 14.9527 91.0332 14.2416C90.3501 13.7804 89.7455 13.4152 89.3551 12.7041C88.8087 11.7624 88.5748 10.7246 88.5748 9.62911C88.5748 8.32223 88.5941 6.63095 88.6139 5.32411L88.6917 1.44188C88.7115 1.07672 88.6917 0.711565 88.6917 0.269531Z" fill="#1E1E1E"/>
<path d="M101.556 14.5491C101.556 13.1846 101.517 11.9546 101.576 10.7053C101.634 9.47537 101.537 8.22613 101.615 6.97689C101.673 6.20814 101.634 4.88207 101.634 4.1133C101.576 3.11392 101.556 2.11454 101.498 1.11516C101.478 0.826879 101.38 0.557815 101.673 0.269531H107.448C108.795 0.269531 109.809 0.63469 110.882 1.48032C111.331 1.84548 111.545 2.40282 111.643 2.96017C111.799 3.92111 111.721 5.20878 110.355 6.30424C110.219 6.40034 110.297 6.59253 110.394 6.68863C110.882 7.13067 111.955 8.2069 112.326 8.97565C112.892 10.1672 112.794 11.3396 112.053 12.4735C111.019 14.011 109.477 14.7029 107.604 14.7029L102.863 14.5684H102.668C102.434 14.5684 102.181 14.5876 101.927 14.5876C101.79 14.5876 101.693 14.5684 101.556 14.5491ZM105.048 8.76427C104.951 9.78285 104.99 10.763 105.068 11.7816C105.224 11.7624 105.4 11.7624 105.556 11.7624C106.005 11.7624 106.414 11.8008 106.824 11.8008C107.546 11.8008 108.15 11.6663 108.541 10.9936C108.931 10.3979 108.775 9.55224 108.17 9.18707C107.858 9.0141 107.526 8.86036 107.156 8.80268C106.61 8.70658 106.044 8.72581 105.478 8.70662C105.322 8.70662 105.185 8.72581 105.048 8.76427ZM105.048 5.78533C105.341 5.88143 105.576 5.90066 105.868 5.90066C106.492 5.90066 107.039 5.82379 107.644 5.61236C108.112 5.40098 108.326 4.99735 108.463 4.5169C108.599 3.90189 108.229 3.36377 107.604 3.22923C107.195 3.15236 106.766 3.11392 106.356 3.11392C105.946 3.11392 105.556 3.13314 105.107 3.1908L105.088 3.21001C105.068 3.21001 105.068 3.22923 105.048 3.22923L104.971 5.43939C104.971 5.57395 104.99 5.65082 105.048 5.78533Z" fill="#1E1E1E"/>
<path d="M118.465 11.2819C118.68 11.3012 118.895 11.3204 119.11 11.3204C119.636 11.3204 120.163 11.2627 120.69 11.2627C122.153 11.2627 123.636 11.2243 125.119 11.1474C125.275 11.4549 125.314 14.2801 125.138 14.5299C123.421 14.5491 121.704 14.5684 119.987 14.626H119.304C118.349 14.626 117.412 14.6068 116.417 14.6068C115.871 14.6068 115.324 14.5876 114.758 14.6452C114.758 14.184 114.739 13.7035 114.739 13.223C114.758 11.3972 114.7 9.62911 114.778 7.80332C114.837 6.49644 114.876 5.17032 114.856 3.86345C114.856 2.69111 114.837 1.53797 114.778 0.30797C115.149 0.28875 115.519 0.269531 115.89 0.269531C116.651 0.269531 117.373 0.30797 118.095 0.30797C118.388 0.480941 118.426 0.711565 118.426 0.999849C118.426 3.07548 118.426 5.07422 118.446 7.14986V11.0321C118.446 11.0897 118.446 11.1474 118.465 11.2819Z" fill="#1E1E1E"/>
<path d="M126.838 14.4716C126.78 9.72455 126.819 5.11202 126.994 0.364961H127.248C127.307 0.364961 127.384 0.345743 127.443 0.345743C127.677 0.345743 127.931 0.403399 128.165 0.403399C128.379 0.403399 128.536 0.364961 128.672 0.307305C128.692 0.288086 128.75 0.288086 128.809 0.288086C128.887 0.288086 128.984 0.307305 129.082 0.307305H129.921C130.448 0.307305 130.526 0.307305 130.526 0.92231C130.467 1.92169 130.486 2.92107 130.486 3.92044C130.428 6.78407 130.448 9.57081 130.448 12.4344V14.4716C130.311 14.6253 130.097 14.6446 129.882 14.6446H129.745C129.335 14.6446 128.906 14.6253 128.497 14.6253L127.092 14.5485C126.994 14.5485 126.916 14.4908 126.838 14.4716Z" fill="#1E1E1E"/>
<path d="M143.278 4.24736C143.219 4.38188 143.102 4.45879 142.926 4.45879C142.829 4.45879 142.751 4.43956 142.692 4.38188C141.931 3.78611 140.644 3.03657 139.473 3.03657C139.336 3.03657 139.239 3.03657 139.102 3.05579C137.522 3.05579 136.117 4.63176 135.707 6.01552C135.688 6.09239 135.649 6.16926 135.649 6.24613C135.649 7.07252 135.532 7.87972 135.746 8.6677C136 9.68629 136.527 10.5896 137.463 11.1085C138.088 11.4352 138.77 11.6658 139.492 11.6658C139.668 11.6658 139.863 11.685 140.039 11.6274C140.565 11.5505 141.073 11.3776 141.541 11.0893C141.912 10.8394 142.224 10.5127 142.556 10.2052C142.614 10.1476 142.653 10.0707 142.731 10.013C142.809 9.95536 142.868 9.93613 142.926 9.93613C143.004 9.93613 143.082 9.97458 143.141 10.0515C143.278 10.2244 143.375 10.3782 143.453 10.5896C143.746 11.2238 143.98 11.858 144.233 12.4923C144.448 12.9727 144.409 13.1264 143.96 13.4147C142.712 14.2027 141.443 14.7024 139.96 14.7024C139.824 14.7024 139.668 14.7024 139.512 14.6832C138.946 14.6255 138.361 14.664 137.795 14.5679C136.8 14.3949 135.903 14.0874 135.064 13.4916C133.152 12.0694 132.527 9.93613 132.371 7.68752C132.215 6.07316 132.625 4.65095 133.464 3.2672C133.912 2.55611 134.381 1.90266 135.142 1.46063C135.824 1.07626 136.429 0.557348 137.21 0.384376C138.048 0.230627 139.161 0 140 0C140.682 0 141.346 0.115313 142.029 0.269064C142.829 0.480473 143.394 0.941722 143.999 1.46063C144.253 1.67204 144.312 1.97954 144.175 2.26782C143.921 2.70986 143.531 3.69002 143.278 4.24736Z" fill="#1E1E1E"/>
<path d="M158.351 0.0957031C160.146 0.0957031 161.609 0.556957 163.072 1.61399C164.672 2.78634 165.218 4.2662 165.531 6.11118C165.667 6.95684 165.706 7.82169 165.491 8.66731C165.433 8.97479 165.472 9.30154 165.394 9.5898C165.16 10.6661 164.653 11.627 163.97 12.4919C162.741 14.0678 160.829 14.5483 158.917 14.7597C158.819 14.7789 158.702 14.7789 158.604 14.7789C158.078 14.7789 157.551 14.7405 157.063 14.6059C153.922 14.0486 152.068 12.0306 151.776 8.9556C151.717 8.4367 151.639 7.93697 151.639 7.41807C151.62 6.09199 151.795 4.84275 152.478 3.63197C152.946 2.80556 153.512 2.09446 154.215 1.47946C155.522 0.345548 156.732 0.249454 158.351 0.0957031ZM155.736 4.99649C155.288 5.78447 155.053 6.64932 155.053 7.57185C155.073 7.74482 155.053 7.9562 155.112 8.16763C155.424 9.93574 156.77 11.3387 158.663 11.3387C160.458 11.3387 161.804 10.0318 162.116 8.3406C162.253 7.59103 162.077 6.87997 162.058 6.13041C162.058 5.9959 161.98 5.84215 161.921 5.68837C161.355 4.41994 160.087 3.38212 158.644 3.38212C157.531 3.51666 156.341 3.99712 155.736 4.99649Z" fill="#1E1E1E"/>
<path d="M167.659 1.57562C167.679 1.19124 167.991 0.883741 168.381 0.826086C168.83 0.768427 169.22 0.749211 169.669 0.729991C170.664 0.710771 171.639 0.710771 172.634 0.710771C174.039 0.710771 175.405 0.691552 176.809 0.691552C177.063 0.691552 177.317 0.672332 177.551 0.729991C177.922 0.787646 178 0.864521 178 1.22968C178 1.82546 177.98 2.40203 177.98 2.99781V3.2861C177.98 3.4975 177.805 3.67047 177.59 3.67047H177.219C176.439 3.67047 175.658 3.5936 174.897 3.5936H171.718C171.542 3.5936 171.444 3.68969 171.425 3.86266C171.366 4.38155 171.308 5.36173 171.366 5.89986C171.386 6.07283 171.503 6.22657 171.718 6.20734L176.01 6.1497C176.127 6.2458 176.205 6.438 176.224 6.72625C176.244 7.39894 176.302 8.01391 176.302 8.6866V8.80189C176.244 9.01331 176.107 9.12864 175.893 9.12864C174.468 9.12864 173.044 9.14782 171.62 9.18628C171.464 9.18628 171.346 9.32079 171.346 9.47458C171.346 10.2817 171.386 13.3952 171.327 14.5099C171.308 14.6252 171.23 14.6828 171.132 14.6828L167.718 14.7021C167.601 14.7021 167.542 14.6637 167.542 14.5676C167.464 13.818 167.542 13.0685 167.542 12.3766C167.523 11.6271 167.562 10.8583 167.581 10.1088C167.581 9.34002 167.581 8.57127 167.601 7.7833C167.601 6.88004 167.562 5.97673 167.62 5.07343C167.679 4.59298 167.64 4.1125 167.64 3.63204C167.581 2.95937 167.64 2.28672 167.659 1.57562Z" fill="#1E1E1E"/>
<path d="M50.9295 29.6422C51.27 29.9778 51.611 30.3583 51.9743 30.6939C53.0646 31.768 53.8596 32.4616 55.5407 32.4616C56.245 32.4616 56.8809 32.3721 57.494 32.0141C58.5164 31.3652 58.3573 30.1345 57.6759 29.5975C57.1991 29.1723 56.6762 28.8814 55.9724 28.8814C55.4952 28.8814 54.9956 28.8814 54.5183 28.8143C53.9052 28.7024 53.3144 28.501 52.7013 28.3891C51.8152 28.2101 51.1565 27.785 50.543 27.1808C49.7252 26.3976 49.4982 25.3235 49.3391 24.2495C49.18 23.1083 49.6573 22.1013 50.2932 21.2062C51.5654 19.4162 53.8596 18.7449 55.9724 18.6777C56.7218 18.6777 57.4489 18.812 58.1075 19.1029C58.7207 19.349 59.2658 19.5951 59.8338 19.8413C60.311 20.065 60.6971 20.3783 61.0153 20.7811C61.174 20.9601 61.2195 21.1391 61.106 21.3181L59.9701 23.7796C59.8566 24.0481 59.6524 24.1376 59.3114 24.2271C58.6527 23.2201 56.9716 22.258 55.7222 22.258C54.7457 22.258 53.8596 22.5488 53.5191 23.5334C53.3372 24.0481 53.7005 24.9879 54.2685 25.2341C54.6095 25.3907 54.95 25.4578 55.3133 25.5249C56.2222 25.6368 57.1535 25.6144 58.0392 25.7935C59.1979 26.062 60.2655 26.5095 61.1516 27.4269C62.1057 28.4786 62.5597 29.7093 62.4918 31.119C62.4234 32.3945 61.9917 33.5357 60.9242 34.3637C59.4705 35.4601 57.3126 35.9076 55.4952 35.9076C53.6777 35.9076 51.5198 35.393 50.1797 34.1399C50.0206 33.9832 49.9299 33.849 49.7708 33.6924C49.4754 33.3567 49.4075 32.9987 49.5666 32.5959C49.9071 31.7903 50.1569 30.9624 50.4523 30.1569C50.543 29.9107 50.5885 29.7093 50.9295 29.6422Z" fill="#1E1E1E"/>
<path d="M68.9247 32.7078H68.72C68.4702 33.6923 68.2888 34.565 68.0386 35.4601C68.0386 35.5272 67.9706 35.5943 67.9023 35.6615C66.8347 35.6615 65.8355 35.7062 64.8131 35.7062C64.3363 35.7062 64.0181 35.3034 64.1088 34.8335C64.2 34.3189 64.3135 33.7818 64.4726 33.2672C65.6308 28.8814 66.7668 24.5851 68.1977 20.2664C68.2888 19.9308 68.493 19.528 68.6521 19.1923C68.72 19.0805 68.7884 19.0134 68.8791 18.991C68.9703 18.9462 69.0838 18.9238 69.1973 18.9238C70.0151 18.9462 70.8328 19.0581 71.6506 19.0581C71.9232 19.0581 72.173 19.0357 72.4228 19.0134C72.5139 18.991 72.6047 19.0581 72.6726 19.0581L73.7629 23.1306L74.6035 26.241C74.9896 27.6059 75.4213 28.9262 75.8074 30.2911L77.1252 35.4377C77.148 35.5496 77.1024 35.6167 76.9889 35.6167H75.1715C74.4672 35.6167 73.7857 35.6167 73.4904 35.6391C73.4224 35.6391 73.3769 35.5943 73.3541 35.5272C73.0591 34.6545 72.9228 33.5357 72.6274 32.6183C72.3776 32.5959 72.173 32.5959 71.9232 32.5959C70.9235 32.5959 69.9243 32.7078 68.9247 32.7078ZM71.8325 29.0828C71.6506 27.8744 71.151 25.3459 70.8556 24.3389C70.8556 24.2718 70.81 24.2271 70.7421 24.2271C70.6737 24.2271 70.6282 24.2718 70.6058 24.3389C70.2421 25.8158 69.7197 27.785 69.4699 29.1499C69.7425 29.1947 70.083 29.217 70.4695 29.217C71.0147 29.217 71.5599 29.1723 71.8325 29.0828Z" fill="#1E1E1E"/>
<path d="M79.3158 35.5271C79.3158 33.9384 79.2706 32.5063 79.3386 31.0518C79.4069 29.6197 79.2934 28.1652 79.3841 26.7108C79.4521 25.8157 79.4069 24.2717 79.4069 23.3767C79.3386 22.2131 79.3158 21.0495 79.2478 19.8859C79.225 19.5503 79.1115 19.237 79.4521 18.9014H86.1761C87.7437 18.9014 88.9248 19.3265 90.1742 20.3111C90.6966 20.7362 90.9464 21.3852 91.0599 22.0341C91.2418 23.1529 91.151 24.6521 89.5607 25.9276C89.4016 26.0394 89.4927 26.2632 89.6062 26.3751C90.1742 26.8898 91.4236 28.1429 91.8549 29.0379C92.514 30.4253 92.4001 31.7902 91.5371 33.1104C90.3333 34.9006 88.5387 35.7061 86.3579 35.7061L80.8378 35.5495H80.6108C80.3382 35.5495 80.0428 35.5719 79.7474 35.5719C79.5884 35.5719 79.4748 35.5495 79.3158 35.5271ZM83.3823 28.7918C83.2683 29.9777 83.3139 31.1189 83.4046 32.3049C83.5865 32.2825 83.7911 32.2825 83.9726 32.2825C84.495 32.2825 84.9722 32.3273 85.449 32.3273C86.2896 32.3273 86.9938 32.1706 87.4483 31.3874C87.9023 30.6938 87.7209 29.7092 87.0166 29.2841C86.6533 29.0827 86.2668 28.9036 85.8356 28.8365C85.1992 28.7247 84.5405 28.747 83.8819 28.7247C83.7 28.7247 83.5409 28.747 83.3823 28.7918ZM83.3823 25.3234C83.7228 25.4353 83.9954 25.4577 84.3363 25.4577C85.0629 25.4577 85.6993 25.3682 86.4031 25.122C86.9483 24.8759 87.1985 24.406 87.3572 23.8466C87.5162 23.1305 87.0846 22.504 86.3579 22.3474C85.8807 22.2578 85.3811 22.2131 84.9039 22.2131C84.427 22.2131 83.9726 22.2355 83.4502 22.3026L83.4274 22.325C83.4046 22.325 83.4046 22.3474 83.3823 22.3474L83.2911 24.9207C83.2911 25.0773 83.3139 25.1668 83.3823 25.3234Z" fill="#1E1E1E"/>
<path d="M94.9828 30.112C95.3461 30.2686 95.3917 30.4924 95.4824 30.6714C95.914 31.8126 97.6179 32.551 98.7762 32.551C99.935 32.551 100.594 31.9692 100.73 30.828C100.98 28.9261 100.866 27.024 100.843 25.122L100.753 22.1683C100.753 21.3628 100.753 20.3334 100.775 19.5279C100.775 19.3713 100.798 19.2147 100.821 19.0356C100.843 18.9685 100.889 18.9461 100.957 18.9237C101.139 18.9014 101.457 18.9014 101.888 18.9014C102.683 18.9014 103.728 18.9237 104.251 18.9237H104.796C104.842 19.0804 104.864 19.2147 104.864 19.3041L104.932 27.2925C104.932 28.4561 104.955 29.6197 104.955 30.7833C104.955 32.5734 103.501 34.453 101.979 35.3481C101.093 35.7285 100.139 35.9299 99.1623 35.9299C97.4361 35.9299 94.96 35.4376 93.7105 34.2516C93.2337 33.7817 93.2109 33.6475 93.4835 33.1104C93.8696 32.2825 94.2106 31.4546 94.6418 30.649C94.733 30.47 94.8693 30.291 94.9828 30.112Z" fill="#1E1E1E"/>
<path d="M107.931 35.4377C107.863 29.9107 107.908 24.5403 108.113 19.0134H108.408C108.476 19.0134 108.567 18.991 108.635 18.991C108.908 18.991 109.203 19.0581 109.476 19.0581C109.725 19.0581 109.907 19.0134 110.066 18.9462C110.089 18.9238 110.157 18.9238 110.225 18.9238C110.316 18.9238 110.43 18.9462 110.543 18.9462H111.52C112.133 18.9462 112.224 18.9462 112.224 19.6623C112.156 20.8259 112.179 21.9894 112.179 23.153C112.111 26.4871 112.133 29.7317 112.133 33.0658V35.4377C111.974 35.6167 111.724 35.6391 111.474 35.6391H111.315C110.839 35.6391 110.339 35.6167 109.862 35.6167L108.226 35.5272C108.113 35.5272 108.022 35.4601 107.931 35.4377Z" fill="#1E1E1E"/>
<path d="M129.558 29.5969H129.717C129.808 29.127 130.626 24.1817 130.898 22.1679C130.966 21.6308 131.148 20.2435 131.262 19.7064C131.262 19.5722 131.284 19.4156 131.33 19.2365C131.353 19.0799 131.466 18.968 131.625 18.9456H132.171C133.579 18.9456 134.26 18.9232 135.828 18.9232C135.918 18.9232 136.191 18.9456 136.078 19.4156C135.737 20.5568 135.419 21.9217 135.123 23.0853C134.737 24.6069 134.419 26.0614 134.056 27.583L133.329 30.3129C132.943 31.7674 132.602 33.2219 132.239 34.6763C132.171 34.8553 132.125 35.2133 132.057 35.4595C132.034 35.549 131.966 35.6609 131.875 35.6609C131.262 35.6609 128.286 35.6385 127.9 35.6385C127.264 35.6385 127.105 35.6385 126.923 34.9224C126.537 33.2442 126.105 31.6107 125.674 29.9325C125.515 29.4626 125.401 28.9927 125.242 28.478C125.22 28.4109 125.174 28.3885 125.106 28.3885C125.038 28.3885 124.992 28.4109 124.969 28.478C124.424 30.1563 123.243 34.3183 122.88 35.37C122.811 35.5714 122.698 35.6385 122.494 35.6161H121.767C120.858 35.6161 120.018 35.6385 119.131 35.6385H118.45C118.246 35.6385 118.132 35.549 118.087 35.3924C117.337 33.1994 114.316 21.2504 114.043 19.1694C114.021 19.0128 114.111 18.9232 114.27 18.9232C114.702 18.9232 115.52 18.9456 116.133 18.9456H117.768C117.882 18.9456 117.996 18.968 118.132 19.0128C118.246 19.0351 118.314 19.1246 118.336 19.2365C118.541 20.4672 118.7 21.6084 118.95 22.772L119.722 26.2851L120.472 29.9549C120.494 30.022 120.54 30.0668 120.608 30.0668C120.676 30.0668 120.722 30.0444 120.744 29.9772C121.176 28.5004 122.221 24.6069 122.584 22.7497L123.266 19.4603C123.357 19.0128 123.425 18.968 123.902 18.9009C124.243 18.8338 124.606 18.8561 124.947 18.8561C125.514 18.8561 126.06 18.8785 126.628 18.9456C126.991 19.0128 127.241 19.1246 127.332 19.4827C127.423 19.7736 127.491 20.0644 127.559 20.3554L128.445 24.8978C128.604 25.6362 128.763 26.3746 128.945 27.1131L129.558 29.5969Z" fill="#1E1E1E"/>
<path d="M140.755 32.7078H140.55C140.3 33.6923 140.119 34.565 139.868 35.4601C139.868 35.5272 139.801 35.5943 139.732 35.6615C138.665 35.6615 137.665 35.7062 136.643 35.7062C136.166 35.7062 135.848 35.3034 135.939 34.8335C136.03 34.3189 136.143 33.7818 136.302 33.2672C137.461 28.8814 138.597 24.5851 140.028 20.2664C140.119 19.9308 140.323 19.528 140.482 19.1923C140.55 19.0805 140.618 19.0134 140.709 18.991C140.8 18.9462 140.914 18.9238 141.027 18.9238C141.845 18.9462 142.663 19.0581 143.48 19.0581C143.753 19.0581 144.003 19.0357 144.253 19.0134C144.344 18.991 144.435 19.0581 144.502 19.0581L145.593 23.1306L146.433 26.241C146.819 27.6059 147.251 28.9262 147.637 30.2911L148.955 35.4377C148.978 35.5496 148.932 35.6167 148.819 35.6167H147.001C146.297 35.6167 145.616 35.6167 145.32 35.6391C145.252 35.6391 145.207 35.5943 145.184 35.5272C144.889 34.6545 144.753 33.5357 144.457 32.6183C144.208 32.5959 144.003 32.5959 143.753 32.5959C142.753 32.5959 141.754 32.7078 140.755 32.7078ZM143.662 29.0828C143.48 27.8744 142.981 25.3459 142.685 24.3389C142.685 24.2718 142.64 24.2271 142.572 24.2271C142.504 24.2271 142.458 24.2718 142.436 24.3389C142.072 25.8158 141.55 27.785 141.3 29.1499C141.572 29.1947 141.913 29.217 142.299 29.217C142.845 29.217 143.39 29.1723 143.662 29.0828Z" fill="#1E1E1E"/>
<path d="M155.105 31.7231C155.355 31.7455 155.605 31.7679 155.855 31.7679C156.468 31.7679 157.082 31.7007 157.695 31.7007C159.399 31.7007 161.125 31.656 162.852 31.5665C163.033 31.9245 163.079 35.2138 162.874 35.5047C160.875 35.5271 158.876 35.5495 156.877 35.6166H156.082C154.969 35.6166 153.878 35.5942 152.72 35.5942C152.084 35.5942 151.448 35.5719 150.789 35.639C150.789 35.102 150.766 34.5425 150.766 33.9831C150.789 31.8573 150.721 29.7987 150.812 27.673C150.88 26.1513 150.926 24.6074 150.903 23.0858C150.903 21.7208 150.88 20.3782 150.812 18.9461C151.244 18.9237 151.675 18.9014 152.107 18.9014C152.993 18.9014 153.833 18.9461 154.674 18.9461C155.014 19.1475 155.06 19.416 155.06 19.7517C155.06 22.1683 155.06 24.4955 155.083 26.9122V31.4322C155.083 31.4993 155.083 31.5665 155.105 31.7231Z" fill="#1E1E1E"/>
<path d="M169.682 32.7078H169.477C169.227 33.6923 169.046 34.565 168.796 35.4601C168.796 35.5272 168.728 35.5943 168.659 35.6615C167.592 35.6615 166.593 35.7062 165.57 35.7062C165.093 35.7062 164.775 35.3034 164.866 34.8335C164.957 34.3189 165.071 33.7818 165.23 33.2672C166.388 28.8814 167.524 24.5851 168.955 20.2664C169.046 19.9308 169.25 19.528 169.409 19.1923C169.477 19.0805 169.545 19.0134 169.636 18.991C169.727 18.9462 169.841 18.9238 169.954 18.9238C170.772 18.9462 171.59 19.0581 172.408 19.0581C172.68 19.0581 172.93 19.0357 173.18 19.0134C173.271 18.991 173.362 19.0581 173.43 19.0581L174.52 23.1306L175.361 26.241C175.747 27.6059 176.178 28.9262 176.564 30.2911L177.882 35.4377C177.905 35.5496 177.859 35.6167 177.746 35.6167H175.929C175.224 35.6167 174.543 35.6167 174.247 35.6391C174.179 35.6391 174.134 35.5943 174.111 35.5272C173.816 34.6545 173.68 33.5357 173.384 32.6183C173.135 32.5959 172.93 32.5959 172.68 32.5959C171.681 32.5959 170.681 32.7078 169.682 32.7078ZM172.589 29.0828C172.408 27.8744 171.908 25.3459 171.613 24.3389C171.613 24.2718 171.567 24.2271 171.499 24.2271C171.431 24.2271 171.385 24.2718 171.363 24.3389C170.999 25.8158 170.477 27.785 170.227 29.1499C170.499 29.1947 170.84 29.217 171.227 29.217C171.772 29.217 172.317 29.1723 172.589 29.0828Z" fill="#1E1E1E"/>
<path d="M14.8619 0.211914C14.1507 0.211914 13.4914 0.578415 13.1237 1.1781L0.292458 22.105C-0.0959492 22.7384 -0.0975899 23.5314 0.288193 24.1664L6.65686 34.6496C7.0236 35.2533 7.68526 35.6228 8.39941 35.6228H34.194C34.9056 35.6228 35.5653 35.2559 35.9328 34.6557L42.3557 24.1674C42.7448 23.532 42.7449 22.7368 42.356 22.1013L29.5516 1.17951C29.1841 0.579021 28.5243 0.211914 27.8125 0.211914H14.8619Z" fill="#1E1E1E"/>
<path fill-rule="evenodd" clip-rule="evenodd" d="M26.7843 16.7641C26.8006 16.8744 26.7353 16.9374 26.6538 16.9217H26.4906C26.0145 16.9217 25.2311 16.9566 24.6165 16.984C24.2197 17.0017 23.8933 17.0163 23.7653 17.0163C23.7164 17.0163 23.6674 16.9848 23.6511 16.9059C23.3541 16.2247 23.0167 15.488 22.6756 14.7434C22.2669 13.8511 21.8529 12.9474 21.4972 12.114H20.6975C20.6953 12.1418 20.6931 12.169 20.691 12.1957C20.6771 12.3658 20.6649 12.5159 20.6649 12.6657C20.6567 12.784 20.6567 12.8943 20.6567 13.0046C20.6567 13.115 20.6567 13.2253 20.6486 13.3435L20.5996 15.0774L20.5343 16.5276C20.518 16.701 20.5017 16.8114 20.2896 16.9848C19.4083 16.9848 18.5271 16.969 17.6459 16.9374C17.5969 16.7641 17.5643 16.638 17.5643 16.4961L17.6296 14.5888C17.6459 13.5169 17.6459 12.4766 17.6459 11.4047C17.6459 10.3486 17.6296 9.30829 17.5969 8.26793C17.5806 7.62166 17.5317 6.9596 17.4827 6.31334V5.50944C17.6622 5.30454 17.8254 5.25723 18.0375 5.25723C18.2244 5.25176 18.4094 5.24439 18.5924 5.23711C18.9366 5.22339 19.2739 5.20996 19.6042 5.20996H21.6112C23.5858 5.20996 25.8886 5.49368 26.4108 7.70048C26.6555 8.72504 26.4271 9.68658 25.9212 10.6166C25.5976 11.2416 24.8411 11.5413 24.208 11.7922L24.1914 11.7988C24.2911 12.1839 24.4951 12.5472 24.6925 12.8986C24.7859 13.065 24.8779 13.2287 24.9566 13.3908C25.2666 14.0056 25.593 14.6203 25.9193 15.235C26.0091 15.4005 26.1438 15.6252 26.2784 15.8498C26.4131 16.0744 26.5477 16.2991 26.6374 16.4646C26.6521 16.4893 26.6667 16.5125 26.6808 16.5348C26.7295 16.6119 26.7717 16.6785 26.7843 16.7641ZM20.5507 7.62166V9.71809C21.2198 9.71809 21.7435 9.71809 22.3473 9.70234C22.4616 9.70234 22.5921 9.67083 22.7227 9.59201C23.1633 9.41862 23.506 8.91419 23.4407 8.53589C23.3428 7.95269 23.0001 7.63742 22.4126 7.59011C21.8741 7.5586 21.4319 7.54285 20.8933 7.54285C20.7791 7.54285 20.6812 7.57436 20.5507 7.62166Z" fill="white"/>
<path d="M24.9396 26.4612C25.0425 26.5666 25.145 26.6772 25.2485 26.7889C25.4065 26.9595 25.5671 27.1327 25.7353 27.2944C26.5668 28.1468 27.1781 28.7025 28.5503 28.8014C29.1251 28.8428 29.6492 28.8145 30.1694 28.5879C31.0392 28.1718 30.9764 27.2593 30.4494 26.8251C30.0831 26.4851 29.6725 26.2409 29.0977 26.1994C28.7083 26.1714 28.3003 26.142 27.9145 26.0647C27.6673 26.0056 27.4258 25.9305 27.1844 25.8553C26.943 25.7801 26.7016 25.7049 26.4542 25.6459C25.7408 25.4624 25.2263 25.1117 24.7585 24.6322C24.1336 24.0094 24.0067 23.2078 23.9354 22.4103C23.8678 21.5635 24.3121 20.8526 24.88 20.2332C26.016 18.9943 27.9254 18.6367 29.6536 18.7116C30.2655 18.7557 31.1077 18.897 31.6296 19.1492C31.9951 19.3117 32.3292 19.472 32.6633 19.6322C32.7747 19.6856 32.8861 19.7391 32.9987 19.7926C33.3759 19.9848 33.674 20.2375 33.9117 20.5517C34.0318 20.6924 34.0591 20.8265 33.9566 20.9512L32.8953 22.6906C32.788 22.881 32.6163 22.9347 32.3332 22.9803C31.8504 22.2026 30.2744 21.3977 29.2546 21.3242C28.4572 21.2668 27.7182 21.4282 27.3864 22.1306C27.21 22.4976 27.4555 23.2087 27.9056 23.4227C28.1753 23.5577 28.4497 23.627 28.7428 23.6976C29.0364 23.7517 29.3341 23.7903 29.6313 23.8289C30.0787 23.8869 30.5246 23.9447 30.9533 24.0549C31.8844 24.3202 32.7315 24.7113 33.4047 25.4367C34.1263 26.2646 34.4301 27.1944 34.2976 28.2249C34.1725 29.1569 33.758 29.969 32.8414 30.5138C31.5949 31.2329 29.8089 31.4344 28.3254 31.3275C26.842 31.2206 25.1084 30.7161 24.0827 29.7177C24.022 29.6555 23.975 29.5985 23.928 29.5414C23.8809 29.4844 23.8339 29.4274 23.7733 29.3652C23.5505 29.1016 23.5144 28.8348 23.6661 28.5486C23.8753 28.1775 24.0538 27.7973 24.2313 27.419C24.3269 27.2152 24.4224 27.0118 24.5222 26.8108C24.529 26.797 24.5357 26.7835 24.5422 26.7701C24.6188 26.6134 24.68 26.4881 24.9396 26.4612Z" fill="white"/>
<path d="M10.126 19.1873C10.1434 19.1705 10.167 19.1611 10.1915 19.1611H13.4934C13.6035 19.1611 13.6459 19.3792 13.5506 19.4328C13.497 19.463 13.4311 19.4951 13.3614 19.5291C13.2127 19.6016 13.0463 19.6827 12.9426 19.7725C12.4026 20.2253 11.9854 20.8904 11.6909 21.7677C11.4087 22.645 11.2676 23.7134 11.2676 24.9728C11.2676 26.218 11.4087 27.2793 11.6909 28.1566C11.9854 29.034 12.4026 29.7061 12.9426 30.1731C13.0321 30.2505 13.1778 30.3215 13.3104 30.3861C13.3822 30.4211 13.4503 30.4543 13.5034 30.4855C13.6001 30.5426 13.5477 30.8176 13.4346 30.8176H10.2227C10.1985 30.8176 10.1752 30.8085 10.1579 30.7921C9.64455 30.3069 9.21679 29.7256 8.87472 29.0481C8.31024 27.9161 8.02802 26.5576 8.02802 24.9728C8.02802 23.3879 8.31024 22.0366 8.87472 20.9187C9.20969 20.2469 9.62679 19.6697 10.126 19.1873Z" fill="white"/>
<path d="M15.6251 19.4364C15.5299 19.3823 15.5728 19.1611 15.6831 19.1611H18.8316C18.8563 19.1611 18.88 19.1706 18.8974 19.1876C19.392 19.67 19.8067 20.247 20.1415 20.9187C20.7181 22.0366 21.0064 23.3879 21.0064 24.9728C21.0064 26.5576 20.7181 27.9161 20.1415 29.0481C19.7996 29.7255 19.3744 30.3067 18.8658 30.7919C18.8484 30.8084 18.825 30.8176 18.8008 30.8176H15.746C15.6327 30.8176 15.5793 30.5373 15.6759 30.4796C15.8223 30.392 15.9615 30.2898 16.0934 30.1731C16.6331 29.7061 17.0441 29.034 17.3262 28.1566C17.6084 27.2793 17.7494 26.218 17.7494 24.9728C17.7494 23.7134 17.6084 22.645 17.3262 21.7677C17.0441 20.8904 16.6331 20.2253 16.0934 19.7725C15.9463 19.6423 15.7902 19.5303 15.6251 19.4364Z" fill="white"/>
</g>
<defs>
<clipPath id="clip0_344_271">
<rect width="178" height="36" fill="white"/>
</clipPath>
</defs>
</svg>
