<svg width="70" height="80" viewBox="0 0 70 80" fill="none" xmlns="http://www.w3.org/2000/svg">
<path d="M13.211 10.6294C14.1058 9.89671 15.4523 10.4404 16.3849 11.1241C18.9951 13.038 20.8081 15.8343 23.1374 18.0831C23.4747 18.4089 24.0318 18.725 24.3587 18.3889C24.4902 18.2538 24.5257 18.0546 24.5551 17.8682C24.9062 15.6438 25.2573 13.4192 25.6084 11.1947C26.1204 7.95072 26.6766 4.59089 28.5071 1.86676C28.6529 1.64975 28.8282 1.42262 29.0822 1.36281C29.412 1.28527 29.7475 1.53687 29.8834 1.8479C30.0194 2.15894 30.005 2.51218 29.9882 2.8513C29.7764 7.121 29.5646 11.3907 29.3529 15.6604C29.2777 17.1766 29.1977 18.7183 28.6909 20.1488C28.184 21.5795 27.1793 22.9092 25.759 23.4368C22.1954 24.7606 20.2351 22.303 18.388 19.7794C17.8056 18.9839 12.5198 11.1953 13.211 10.6294Z" fill="#77BC0C"/>
<path d="M16.9092 24.8425C14.4119 24.987 12.1307 26.7721 11.2219 29.1078C10.3366 31.3833 12.6941 37.0501 11.0222 36.3459C9.61292 34.2781 8.58841 31.908 8.33013 29.4175C8.07173 26.9268 8.62317 24.3123 10.0957 22.2894C11.5154 20.3392 13.7668 19.019 16.1588 18.7343C18.5508 18.4496 21.0481 19.2044 22.8841 20.7672C20.6459 14.1632 20.2465 6.57878 23.564 0.447753C23.6785 0.236235 23.8418 -0.000871632 24.0819 2.40923e-06C24.3898 0.00100131 24.5362 0.374222 24.5961 0.676766C25.7067 6.28187 25.2509 12.2323 27.3453 17.5475C28.3081 12.1366 32.777 7.526 38.1459 6.40448C38.4455 7.36517 37.4952 8.21037 36.7094 8.83731C33.2687 11.5825 31.0012 15.7578 30.5689 20.144C30.4322 21.5309 30.4708 22.9317 30.3082 24.3157C30.1861 25.3556 29.9243 26.4334 29.2177 27.2045C28.6372 27.8378 27.8165 28.1957 26.9925 28.4352C24.9949 29.0159 23.4315 29.2458 22.1876 27.5349C20.9518 25.8347 19.0621 24.718 16.9092 24.8425Z" fill="#86CC2B"/>
<path d="M38.2025 80C49.1599 80 58.0426 79.4527 58.0426 78.7777C58.0426 78.1026 49.1599 77.5554 38.2025 77.5554C27.2451 77.5554 18.3624 78.1026 18.3624 78.7777C18.3624 79.4527 27.2451 80 38.2025 80Z" fill="#E1F0F4"/>
<path d="M49.7911 39.6264C51.5377 41.1507 53.8177 41.9229 56.1191 41.973C58.4696 42.0242 60.7806 41.2849 62.7856 40.0819C63.9251 39.3982 64.9766 38.5634 65.9242 37.632C66.3356 37.2277 65.7033 36.5944 65.2922 36.9986C63.7186 38.5451 61.8263 39.8224 59.7408 40.5132C58.6843 40.8632 57.6743 41.0528 56.5909 41.077C56.3179 41.0831 56.0446 41.0787 55.772 41.0639C55.6481 41.0571 55.5242 41.0483 55.4007 41.037C55.3347 41.031 55.269 41.0245 55.2032 41.0173C55.1703 41.0137 55.1374 41.0099 55.1046 41.0061C55.108 41.0064 54.9638 40.9883 55.0268 40.9968C54.4961 40.9256 53.9702 40.8088 53.4584 40.652C52.3585 40.3149 51.2855 39.7451 50.4235 38.9928C50.2416 38.8339 49.9704 38.8133 49.7915 38.9928C49.6292 39.1551 49.6083 39.4669 49.7911 39.6264Z" fill="#474747"/>
<path d="M65.3962 35.4999C65.5348 34.6735 65.5805 33.8321 65.7538 33.0123C65.8108 32.7431 65.9838 32.4081 66.2517 32.4688C66.4709 32.5185 66.5352 32.7954 66.5562 33.0199C66.5867 33.3479 66.6172 33.6761 66.6476 34.0041C66.8735 33.4421 67.0996 32.8801 67.3261 32.3183C67.4909 31.9096 67.6608 31.4927 67.9494 31.1601C68.0879 31.0005 68.3731 30.8771 68.4789 31.0602C68.519 31.1296 68.5094 31.2158 68.4986 31.2953C68.4612 31.5701 68.4238 31.8448 68.3864 32.1196C68.4919 31.8662 68.6358 31.6287 68.8118 31.418C68.946 31.2573 69.2219 31.1207 69.3329 31.2983C69.3759 31.3671 69.3672 31.4551 69.3545 31.5353C69.3139 31.7909 69.2476 32.0425 69.1569 32.2848C69.2846 32.1596 69.3579 31.9857 69.4904 31.8655C69.623 31.7454 69.8658 31.7087 69.9596 31.861C69.994 31.9169 69.9999 31.9854 70 32.0511C70.001 32.3821 69.8828 32.7013 69.7495 33.004C69.0308 34.638 67.8491 36.0191 66.6303 37.3216C66.3618 37.6085 64.2171 39.5269 64.3672 38.4076C64.4178 38.0307 64.6992 37.6159 64.8568 37.2734C65.119 36.7036 65.2926 36.1188 65.3962 35.4999Z" fill="#474747"/>
<path d="M12.8345 49.2495C11.7402 49.3779 10.7154 49.293 9.68069 49.0166C8.62092 48.7335 7.67665 48.2934 6.75318 47.6753C4.95783 46.4737 3.60902 44.6907 2.70299 42.7018C2.20737 41.6137 1.83185 40.3774 1.59214 39.1644C1.54529 38.927 1.26283 38.7908 1.04231 38.8516C0.795245 38.9197 0.683113 39.1645 0.730208 39.4026C1.17674 41.663 2.05661 43.8813 3.45215 45.7253C4.86937 47.598 6.7837 49.0525 9.03369 49.7614C10.2547 50.1461 11.5613 50.2948 12.8343 50.1454C13.074 50.1173 13.2812 49.9597 13.2812 49.6975C13.2815 49.4772 13.0758 49.2211 12.8345 49.2495Z" fill="#474747"/>
<path d="M2.35834 37.9047C2.70944 37.1442 3.14538 36.4236 3.46396 35.6488C3.56862 35.3944 3.61436 35.02 3.35907 34.9186C3.15 34.8356 2.94093 35.0279 2.79741 35.2013C2.58747 35.4549 2.37753 35.7085 2.16759 35.9621C2.29767 35.3704 2.42737 34.7785 2.55682 34.1867C2.65101 33.7561 2.74546 33.3159 2.69462 32.8781C2.6702 32.668 2.50412 32.4049 2.31375 32.4962C2.24161 32.5307 2.20087 32.6074 2.16511 32.6791C2.04127 32.9271 1.9173 33.175 1.79345 33.423C1.84902 33.1541 1.86398 32.8766 1.83744 32.6032C1.81713 32.3946 1.66625 32.1257 1.47463 32.2096C1.4005 32.2421 1.35802 32.3197 1.32338 32.393C1.21299 32.627 1.12603 32.8721 1.06448 33.1236C1.02959 32.9479 1.06696 32.763 1.02523 32.5888C0.983487 32.4146 0.803704 32.2469 0.640366 32.3197C0.580562 32.3463 0.537083 32.3996 0.500079 32.4537C0.312819 32.7264 0.230829 33.0567 0.170154 33.3822C-0.156773 35.1374 0.04109 36.946 0.313695 38.7106C0.373748 39.0994 1.06385 41.8961 1.57031 40.8871C1.74088 40.5472 1.74225 40.0457 1.80492 39.6739C1.90945 39.0552 2.09545 38.4742 2.35834 37.9047Z" fill="#474747"/>
<path d="M19.7682 32.9919C16.8573 38.9627 11.0664 43.6936 10.2432 50.2877C9.84103 53.5088 10.7721 56.8763 12.7708 59.4309C15.4408 62.8433 19.6936 64.6031 23.8831 65.6875C28.7239 66.9407 45.4801 64.5756 52.9416 56.8711C57.0017 52.6788 56.4636 47.5303 55.1749 43.2054C54.6431 41.4201 53.9364 39.674 52.9157 38.1168C51.0731 35.3055 48.289 33.2331 45.3395 31.6284C42.3899 30.0236 39.2368 28.8337 36.1999 27.402C34.7426 26.715 33.2741 25.9432 32.2178 24.7251C31.1615 23.5069 30.593 21.7395 31.1879 20.2397C29.5658 20.3329 28.0765 21.5805 27.6974 23.164C27.2236 22.1058 25.7685 21.7575 24.7144 22.2364C23.6604 22.7154 22.9933 23.8037 22.686 24.922C21.4689 24.4665 19.941 24.3887 18.7387 24.9217C21.5016 26.7167 21.0309 30.4017 19.7682 32.9919Z" fill="#F9D069"/>
<path d="M52.9416 56.8933C57.0015 52.7011 56.4636 47.5525 55.1749 43.2276C54.6429 41.4424 53.9363 39.6963 52.9157 38.139C51.0731 35.3277 48.289 33.2553 45.3394 31.6506C42.3899 30.0459 39.2367 28.8559 36.1998 27.4242C34.7426 26.7372 33.2741 25.9655 32.2178 24.7473C31.1615 23.5291 30.593 21.7617 31.1879 20.262C31.1205 20.2658 31.0535 20.2725 30.9866 20.2802C29.7283 22.0294 28.7037 23.9473 27.9543 25.9687C27.7383 26.5513 27.5423 27.1746 27.6578 27.7852C27.8428 28.7634 28.7942 29.4365 29.763 29.6569C30.7318 29.8772 31.7399 29.7497 32.733 29.723C38.7609 29.5608 44.6761 33.5818 46.7547 39.2547C47.4063 41.0333 47.7062 42.9763 47.3521 44.8374C46.7693 47.9013 44.5341 50.3536 42.2956 52.5206C40.8301 53.9391 39.3027 55.327 37.5164 56.3093C35.157 57.6066 32.4637 58.1344 29.8124 58.5967C23.4754 59.7016 16.3829 60.3721 11.1359 56.6562C11.5554 57.6553 12.1032 58.5997 12.7709 59.4531C15.4409 62.8655 19.6937 64.6253 23.8832 65.7097C28.7239 66.9629 45.4801 64.5977 52.9416 56.8933Z" fill="#F7BD6F"/>
<path d="M19.9658 36.9504C17.4545 40.1825 16.206 44.2831 15.3714 48.2348C14.5551 52.0994 13.8846 56.7759 16.1229 60.2993C16.7107 61.2246 17.4595 62.046 18.2668 62.7827C19.0849 63.5292 19.9937 64.3573 20.9664 64.8923C21.6324 65.2586 22.3619 64.3726 21.7925 63.8192C21.1423 63.1871 20.3444 62.6984 19.6524 62.1104C18.9641 61.5256 18.3008 60.8945 17.7416 60.1823C16.5224 58.6296 15.9835 56.7662 15.8633 54.8151C15.744 52.8815 15.9076 50.9087 16.1182 48.9866C16.3332 47.0225 16.6918 45.0705 17.2442 43.1721C17.8816 40.9815 18.8518 38.946 20.0193 36.9916C20.0383 36.9595 19.9901 36.9193 19.9658 36.9504Z" fill="#F7BD6F"/>
<path d="M22.8493 43.9894C22.0783 45.952 21.8057 48.2034 21.6026 50.2911C21.4075 52.2956 21.3812 54.3065 21.6562 56.3055C22.1366 59.799 23.5628 63.1864 26.0809 65.6961C26.7912 66.4039 27.9056 65.2855 27.1795 64.5951C24.7534 62.2888 23.4308 59.1295 22.8629 55.8687C22.5299 53.9562 22.4708 51.9851 22.5632 50.0485C22.6589 48.0423 23.0567 46.0209 23.0293 44.0137C23.0277 43.9045 22.8857 43.8966 22.8493 43.9894Z" fill="#F7BD6F"/>
<path d="M36.9172 42.9881C39.0116 45.6905 40.0153 49.0559 40.1946 52.445C40.2964 54.3682 40.1422 56.3178 39.8679 58.2212C39.7297 59.1796 39.5691 60.1343 39.3926 61.0863C39.3043 61.5626 39.2124 62.0384 39.1191 62.5138C39.027 62.9832 38.8629 63.4288 39.0283 63.8918C39.1491 64.2302 39.6215 64.441 39.8957 64.1213C40.2525 63.7053 40.2637 63.2614 40.3531 62.7295C40.4334 62.2504 40.5124 61.771 40.5875 61.2911C40.7456 60.2814 40.8913 59.2689 40.9971 58.2523C41.2121 56.1859 41.2857 54.1102 41.0574 52.0413C40.6853 48.672 39.4885 45.292 36.9941 42.911C36.9418 42.8615 36.8755 42.9343 36.9172 42.9881Z" fill="#F7BD6F"/>
<path d="M37.247 33.8492C39.229 34.3534 40.754 35.6039 42.1179 37.0772C43.5461 38.62 44.8273 40.3471 45.8483 42.1867C46.886 44.0564 47.6613 46.0677 47.9937 48.1873C48.1653 49.2808 48.2074 50.3993 48.124 51.5033C48.0831 52.0439 48.0066 52.5797 47.8938 53.11C47.7748 53.6692 47.5422 54.2179 47.526 54.7914C47.5091 55.3902 48.2739 55.5061 48.5752 55.0762C49.064 54.3786 49.1559 53.3051 49.2639 52.4779C49.3889 51.5216 49.4189 50.5573 49.3532 49.595C49.2276 47.7587 48.7929 45.9572 48.0937 44.2566C46.7978 41.1048 44.6173 37.9843 41.951 35.8379C40.5882 34.7409 39.0418 33.8381 37.2579 33.7691C37.212 33.7673 37.2027 33.838 37.247 33.8492Z" fill="#F7BD6F"/>
<path d="M25.6845 42.3117C25.7974 43.8781 24.6052 45.3902 23.065 45.6799C21.4459 45.9844 19.7624 44.9895 19.3502 43.6551C18.6224 41.2994 20.2125 39.6062 21.7919 39.1581C23.6743 38.624 25.5574 40.5475 25.6845 42.3117Z" fill="white"/>
<path d="M23.495 40.6182C23.8134 40.8014 24.1491 41.3704 24.2956 41.7079C24.3875 41.9196 24.4185 42.1544 24.4092 42.385C24.3812 43.0755 23.9738 43.7387 23.3711 44.0746C22.7685 44.4104 21.9915 44.4076 21.3912 44.0673C20.7911 43.7269 20.3885 43.0609 20.3655 42.3702C20.348 41.8469 20.517 41.06 20.9649 40.7905C21.766 40.3082 22.6418 40.1273 23.495 40.6182Z" fill="#474747"/>
<path d="M22.4007 41.1855C22.5848 41.3793 22.6354 41.6776 22.5638 41.9354C22.4921 42.1932 22.3115 42.4111 22.0944 42.567C21.9472 42.6727 21.7786 42.7541 21.5988 42.777C21.419 42.7998 21.2272 42.7594 21.0866 42.6448C20.9305 42.5174 20.8526 42.3121 20.8418 42.1106C20.8052 41.4305 21.8165 40.5709 22.4007 41.1855Z" fill="white"/>
<path d="M23.0949 41.2946C23.1498 41.1638 23.4427 41.0389 23.6914 41.2488C23.7728 41.3175 23.8191 41.438 23.7816 41.5376C23.7563 41.6048 23.6945 41.6519 23.6294 41.6817C23.5005 41.7408 23.3413 41.7425 23.2224 41.6653C23.1036 41.5882 23.04 41.4255 23.0949 41.2946Z" fill="white"/>
<path d="M44.1112 38.2324C44.2241 39.7988 43.0319 41.3109 41.4917 41.6006C39.8726 41.9052 38.1892 40.9102 37.7769 39.5758C37.0492 37.2202 38.6392 35.5269 40.2186 35.0788C42.1012 34.5447 43.9841 36.4682 44.1112 38.2324Z" fill="white"/>
<path d="M41.9217 36.5391C42.2401 36.7223 42.5758 37.2913 42.7223 37.6287C42.8143 37.8403 42.8453 38.0752 42.8359 38.3058C42.8079 38.9963 42.4005 39.6595 41.7978 39.9953C41.1952 40.3312 40.4181 40.3284 39.818 39.9881C39.2178 39.6477 38.8153 38.9817 38.7922 38.291C38.7748 37.7677 38.9437 36.9809 39.3916 36.7113C40.1927 36.2291 41.0685 36.0482 41.9217 36.5391Z" fill="#474747"/>
<path d="M40.8274 37.1061C41.0116 37.2999 41.0621 37.5982 40.9905 37.8561C40.9189 38.1138 40.7382 38.3317 40.5212 38.4876C40.3739 38.5934 40.2053 38.6748 40.0256 38.6976C39.8458 38.7205 39.6539 38.68 39.5134 38.5654C39.3573 38.438 39.2794 38.2328 39.2685 38.0312C39.2319 37.3511 40.2432 36.4916 40.8274 37.1061Z" fill="white"/>
<path d="M41.5217 37.2153C41.5766 37.0844 41.8695 36.9596 42.1182 37.1695C42.1996 37.2381 42.2459 37.3586 42.2084 37.4583C42.1831 37.5254 42.1213 37.5725 42.0563 37.6024C41.9275 37.6614 41.7682 37.6633 41.6494 37.586C41.5305 37.5088 41.4668 37.3461 41.5217 37.2153Z" fill="white"/>
<path d="M22.0278 37.6365C22.35 37.5235 22.7313 37.3969 22.8336 37.0707C22.9275 36.7712 22.7074 36.441 22.4175 36.3225C22.1276 36.2039 21.7963 36.2517 21.4975 36.3456C20.8262 36.5565 20.2451 36.981 19.6871 37.4106C19.2055 37.7811 18.5715 38.8582 19.6334 38.9125C20.3707 38.9501 21.2988 37.8923 22.0278 37.6365Z" fill="#474747"/>
<path d="M38.4695 33.8804C38.1291 33.9047 37.7288 33.9402 37.5058 33.6813C37.3012 33.4439 37.3723 33.0532 37.5915 32.829C37.8107 32.6049 38.1337 32.517 38.4452 32.4844C39.1449 32.4111 39.8464 32.5697 40.5286 32.742C41.1174 32.8907 42.1257 33.6272 41.1725 34.0993C40.5106 34.4272 39.2398 33.8252 38.4695 33.8804Z" fill="#474747"/>
<path d="M26.8334 48.8973C28.3039 50.6453 30.5766 51.7162 32.8632 51.687C35.1136 51.6583 37.1922 50.4731 38.4263 48.5952C39.1017 47.5673 39.4908 46.351 39.4765 45.1166C39.4731 44.8284 39.0258 44.8276 39.0292 45.1166C39.0532 47.1906 37.8565 49.1463 36.1387 50.2562C34.3206 51.4309 32.0495 51.4974 30.069 50.7001C28.9417 50.2462 27.932 49.5105 27.1496 48.5804C26.9638 48.3596 26.6489 48.6781 26.8334 48.8973Z" fill="#474747"/>
<path d="M25.768 48.8594C25.8392 48.7145 25.9202 48.5749 26.0118 48.4419C26.0976 48.3172 26.1765 48.2192 26.2947 48.0938C26.5254 47.8491 26.7358 47.6849 27.0256 47.5207C27.1275 47.463 27.1706 47.3148 27.1058 47.214C27.0394 47.1107 26.9089 47.0718 26.7998 47.1336C26.193 47.4775 25.6901 48.006 25.3817 48.6332C25.3302 48.7382 25.35 48.8806 25.462 48.9399C25.5629 48.9933 25.7128 48.9717 25.768 48.8594Z" fill="#474747"/>
<path d="M38.5029 44.6273C39.1016 44.6405 39.6753 44.852 40.1507 45.2183C40.2465 45.2921 40.4012 45.233 40.4567 45.1379C40.5241 45.0222 40.4726 44.9052 40.3765 44.8312C39.8418 44.4193 39.1761 44.1939 38.5029 44.179C38.215 44.1727 38.215 44.6209 38.5029 44.6273Z" fill="#474747"/>
<path d="M20.3471 69.3619C20.148 69.9098 19.977 70.4803 19.9871 71.0634C19.9999 71.8047 20.3023 72.5047 20.5501 73.2033C20.9262 74.2639 21.1853 75.3661 21.3209 76.4833C21.3547 76.7613 21.3608 77.0911 21.1418 77.265C20.9586 77.4105 20.6989 77.38 20.4651 77.3754C19.5405 77.3568 18.6277 77.9067 18.2103 78.7336C19.6377 78.8181 21.0724 78.7815 22.4937 78.6243C23.0514 78.5626 23.6949 78.4216 23.9378 77.9148C24.1409 77.4913 23.9722 76.9913 23.8023 76.5533C23.358 75.4083 22.9138 74.2633 22.4695 73.1183C22.263 72.5859 22.0528 72.0302 22.1006 71.461C22.1569 70.791 22.5626 70.2039 23.0023 69.6958C24.7793 67.6428 27.3048 66.3144 28.9354 64.1429C29.266 63.7028 29.558 63.0857 29.2465 62.6318C29.1183 62.4451 28.9098 62.3301 28.6992 62.2476C24.5456 60.618 21.4356 66.3663 20.3471 69.3619Z" fill="#F7BD6F"/>
<path d="M60.9262 52.0774C61.4889 52.2263 62.0539 52.4109 62.526 52.7519C63.1261 53.1855 63.5272 53.8337 63.9583 54.4363C64.6127 55.351 65.3681 56.1931 66.2063 56.9423C66.4148 57.1287 66.6815 57.3219 66.949 57.2409C67.1727 57.1731 67.2959 56.942 67.4254 56.7469C67.9376 55.9754 68.9091 55.5377 69.825 55.6661C69.0797 56.8891 68.2313 58.049 67.2915 59.1291C66.9227 59.5528 66.4401 60.002 65.8861 59.9128C65.4231 59.8383 65.1098 59.4141 64.8477 59.0244C64.163 58.0055 63.4781 56.9865 62.7934 55.9677C62.4749 55.4938 62.1395 55.0038 61.6457 54.7184C61.0645 54.3824 60.3519 54.3814 59.6848 54.4533C56.9886 54.7445 54.459 56.0652 51.7491 56.1682C51.1998 56.189 50.5276 56.0774 50.3334 55.562C50.2535 55.35 50.2783 55.1127 50.3308 54.8923C51.3656 50.544 57.8506 51.2641 60.9262 52.0774Z" fill="#F7BD6F"/>
<path d="M55.175 43.6807C54.643 41.8955 53.9364 40.1494 52.9157 38.5921C51.966 37.143 50.7657 35.8907 49.4218 34.7971C50.1988 35.568 50.9027 36.408 51.5054 37.3275C52.526 38.8848 53.2327 40.6309 53.7646 42.4161C55.0532 46.741 55.5913 51.8896 51.5313 56.0818C44.0698 63.7863 27.3136 66.1514 22.4727 64.8982C19.3462 64.0889 16.1847 62.903 13.6719 60.9353C16.3423 63.6828 20.1375 65.1933 23.8831 66.1628C28.7239 67.416 45.4802 65.0509 52.9417 57.3464C57.0016 53.1542 56.4635 48.0056 55.175 43.6807Z" fill="#E0AA68"/>
</svg>
